<svg xmlns="http://www.w3.org/2000/svg" xmlns:xlink="http://www.w3.org/1999/xlink" version="1.1" class="marks" width="412" height="364" viewBox="0 0 412 364"><rect width="412" height="364" fill="white"/><g fill="none" stroke-miterlimit="10" transform="translate(56,27)"><g class="mark-group role-frame root" role="graphics-object" aria-roledescription="group mark container"><g transform="translate(0,0)"><path class="background" aria-hidden="true" d="M0.5,0.5h300v300h-300Z" stroke="#ddd"/><g><g class="mark-group role-axis" role="graphics-symbol" aria-roledescription="axis" aria-label="X-axis titled 'Year' for a linear scale with values from 1998 to 2020"><g transform="translate(0.5,300.5)"><path class="background" aria-hidden="true" d="M0,0h0v0h0Z" pointer-events="none"/><g><g class="mark-rule role-axis-tick" pointer-events="none"><line transform="translate(0,0)" x2="0" y2="5" stroke="#888" stroke-width="1" opacity="1"/><line transform="translate(27,0)" x2="0" y2="5" stroke="#888" stroke-width="1" opacity="1"/><line transform="translate(55,0)" x2="0" y2="5" stroke="#888" stroke-width="1" opacity="1"/><line transform="translate(82,0)" x2="0" y2="5" stroke="#888" stroke-width="1" opacity="1"/><line transform="translate(109,0)" x2="0" y2="5" stroke="#888" stroke-width="1" opacity="1"/><line transform="translate(136,0)" x2="0" y2="5" stroke="#888" stroke-width="1" opacity="1"/><line transform="translate(164,0)" x2="0" y2="5" stroke="#888" stroke-width="1" opacity="1"/><line transform="translate(191,0)" x2="0" y2="5" stroke="#888" stroke-width="1" opacity="1"/><line transform="translate(218,0)" x2="0" y2="5" stroke="#888" stroke-width="1" opacity="1"/><line transform="translate(245,0)" x2="0" y2="5" stroke="#888" stroke-width="1" opacity="1"/><line transform="translate(273,0)" x2="0" y2="5" stroke="#888" stroke-width="1" opacity="1"/><line transform="translate(300,0)" x2="0" y2="5" stroke="#888" stroke-width="1" opacity="1"/></g><g class="mark-text role-axis-label" pointer-events="none"><text text-anchor="start" transform="translate(0,15)" font-family="sans-serif" font-size="10px" fill="#000" opacity="1">1998</text><text text-anchor="middle" transform="translate(27.272727272727273,15)" font-family="sans-serif" font-size="10px" fill="#000" opacity="0">2000</text><text text-anchor="middle" transform="translate(54.54545454545455,15)" font-family="sans-serif" font-size="10px" fill="#000" opacity="1">2002</text><text text-anchor="middle" transform="translate(81.81818181818181,15)" font-family="sans-serif" font-size="10px" fill="#000" opacity="0">2004</text><text text-anchor="middle" transform="translate(109.0909090909091,15)" font-family="sans-serif" font-size="10px" fill="#000" opacity="1">2006</text><text text-anchor="middle" transform="translate(136.36363636363635,15)" font-family="sans-serif" font-size="10px" fill="#000" opacity="0">2008</text><text text-anchor="middle" transform="translate(163.63636363636363,15)" font-family="sans-serif" font-size="10px" fill="#000" opacity="1">2010</text><text text-anchor="middle" transform="translate(190.9090909090909,15)" font-family="sans-serif" font-size="10px" fill="#000" opacity="0">2012</text><text text-anchor="middle" transform="translate(218.1818181818182,15)" font-family="sans-serif" font-size="10px" fill="#000" opacity="1">2014</text><text text-anchor="middle" transform="translate(245.45454545454547,15)" font-family="sans-serif" font-size="10px" fill="#000" opacity="0">2016</text><text text-anchor="middle" transform="translate(272.7272727272727,15)" font-family="sans-serif" font-size="10px" fill="#000" opacity="1">2018</text><text text-anchor="end" transform="translate(300,15)" font-family="sans-serif" font-size="10px" fill="#000" opacity="0">2020</text></g><g class="mark-rule role-axis-domain" pointer-events="none"><line transform="translate(0,0)" x2="300" y2="0" stroke="#888" stroke-width="1" opacity="1"/></g><g class="mark-text role-axis-title" pointer-events="none"><text text-anchor="middle" transform="translate(150,30)" font-family="sans-serif" font-size="11px" font-weight="bold" fill="#000" opacity="1">Year</text></g></g><path class="foreground" aria-hidden="true" d="" pointer-events="none" display="none"/></g></g><g class="mark-group role-axis" role="graphics-symbol" aria-roledescription="axis" aria-label="Y-axis titled 'AIAN Drug-Related Death Rate per 100k persons' for a linear scale with values from 0 to 400"><g transform="translate(0.5,0.5)"><path class="background" aria-hidden="true" d="M0,0h0v0h0Z" pointer-events="none"/><g><g class="mark-rule role-axis-tick" pointer-events="none"><line transform="translate(0,300)" x2="-5" y2="0" stroke="#888" stroke-width="1" opacity="1"/><line transform="translate(0,263)" x2="-5" y2="0" stroke="#888" stroke-width="1" opacity="1"/><line transform="translate(0,225)" x2="-5" y2="0" stroke="#888" stroke-width="1" opacity="1"/><line transform="translate(0,188)" x2="-5" y2="0" stroke="#888" stroke-width="1" opacity="1"/><line transform="translate(0,150)" x2="-5" y2="0" stroke="#888" stroke-width="1" opacity="1"/><line transform="translate(0,113)" x2="-5" y2="0" stroke="#888" stroke-width="1" opacity="1"/><line transform="translate(0,75)" x2="-5" y2="0" stroke="#888" stroke-width="1" opacity="1"/><line transform="translate(0,38)" x2="-5" y2="0" stroke="#888" stroke-width="1" opacity="1"/><line transform="translate(0,0)" x2="-5" y2="0" stroke="#888" stroke-width="1" opacity="1"/></g><g class="mark-text role-axis-label" pointer-events="none"><text text-anchor="end" transform="translate(-7,303)" font-family="sans-serif" font-size="10px" fill="#000" opacity="1">0</text><text text-anchor="end" transform="translate(-7,265.5)" font-family="sans-serif" font-size="10px" fill="#000" opacity="1">50</text><text text-anchor="end" transform="translate(-7,228)" font-family="sans-serif" font-size="10px" fill="#000" opacity="1">100</text><text text-anchor="end" transform="translate(-7,190.5)" font-family="sans-serif" font-size="10px" fill="#000" opacity="1">150</text><text text-anchor="end" transform="translate(-7,153)" font-family="sans-serif" font-size="10px" fill="#000" opacity="1">200</text><text text-anchor="end" transform="translate(-7,115.5)" font-family="sans-serif" font-size="10px" fill="#000" opacity="1">250</text><text text-anchor="end" transform="translate(-7,78)" font-family="sans-serif" font-size="10px" fill="#000" opacity="1">300</text><text text-anchor="end" transform="translate(-7,40.5)" font-family="sans-serif" font-size="10px" fill="#000" opacity="1">350</text><text text-anchor="end" transform="translate(-7,3)" font-family="sans-serif" font-size="10px" fill="#000" opacity="1">400</text></g><g class="mark-rule role-axis-domain" pointer-events="none"><line transform="translate(0,300)" x2="0" y2="-300" stroke="#888" stroke-width="1" opacity="1"/></g><g class="mark-text role-axis-title" pointer-events="none"><text text-anchor="middle" transform="translate(-27.6845703125,150) rotate(-90) translate(0,-2)" font-family="sans-serif" font-size="11px" font-weight="bold" fill="#000" opacity="1">AIAN Drug-Related Death Rate per 100k persons</text></g></g><path class="foreground" aria-hidden="true" d="" pointer-events="none" display="none"/></g></g><g class="mark-group role-scope pathgroup" role="graphics-object" aria-roledescription="group mark container"><g transform="translate(0,0)"><path class="background" aria-hidden="true" d="M0,0h300v300h-300Z"/><g><g class="mark-line role-mark marks" role="graphics-object" aria-roledescription="line mark container"><path aria-label="Year: 1999; AIAN Drug-Related Death Rate per 100k persons: 19.862; State: AK" role="graphics-symbol" aria-roledescription="line mark" d="M13.636,285.104L27.273,281.201L40.909,286.202L54.545,282.233L68.182,277.69L81.818,281.37L95.455,276.369L109.091,283.784L122.727,282.588L136.364,262.94L150,272.974L163.636,277.585L177.273,268.626L190.909,263.996L204.545,276.756L218.182,190.556L231.818,168.699L245.455,148.881L259.091,157.785L272.727,154.139L286.364,137.441L300,121.192" stroke="#4c78a8" stroke-width="2"/></g></g><path class="foreground" aria-hidden="true" d="" display="none"/></g><g transform="translate(0,0)"><path class="background" aria-hidden="true" d="M0,0h300v300h-300Z"/><g><g class="mark-line role-mark marks" role="graphics-object" aria-roledescription="line mark container"><path aria-label="Year: 1999; AIAN Drug-Related Death Rate per 100k persons: 22.059; State: AL" role="graphics-symbol" aria-roledescription="line mark" d="M13.636,283.456L27.273,300L40.909,300L54.545,286.113L68.182,300L81.818,287.057L95.455,287.482L109.091,287.967L122.727,288.38L136.364,288.812L150,300L163.636,289.573L177.273,289.683L190.909,289.775L204.545,289.781L218.182,289.844L231.818,289.927L245.455,265.717L259.091,277.955L272.727,266.261L286.364,266.672L300,266.751" stroke="#f58518" stroke-width="2"/></g></g><path class="foreground" aria-hidden="true" d="" display="none"/></g><g transform="translate(0,0)"><path class="background" aria-hidden="true" d="M0,0h300v300h-300Z"/><g><g class="mark-line role-mark marks" role="graphics-object" aria-roledescription="line mark container"><path aria-label="Year: 1999; AIAN Drug-Related Death Rate per 100k persons: 10.534; State: AZ" role="graphics-symbol" aria-roledescription="line mark" d="M13.636,292.1L27.273,292.723L40.909,292.097L54.545,289.964L68.182,291.21L81.818,288.735L95.455,290.275L109.091,290.139L122.727,292.874L136.364,291.56L150,288.744L163.636,275.732L177.273,275.24L190.909,272.227L204.545,266.3L218.182,266.505L231.818,268.544L245.455,262.673L259.091,257.097L272.727,251.423L286.364,250.183L300,221.182" stroke="#e45756" stroke-width="2"/></g></g><path class="foreground" aria-hidden="true" d="" display="none"/></g><g transform="translate(0,0)"><path class="background" aria-hidden="true" d="M0,0h300v300h-300Z"/><g><g class="mark-line role-mark marks" role="graphics-object" aria-roledescription="line mark container"><path aria-label="Year: 1999; AIAN Drug-Related Death Rate per 100k persons: 8.829; State: CA" role="graphics-symbol" aria-roledescription="line mark" d="M13.636,293.378L27.273,292.543L40.909,295.455L54.545,291.374L68.182,289.622L81.818,288.702L95.455,289.946L109.091,290.615L122.727,289.039L136.364,289.136L150,289.849L163.636,289.754L177.273,289.292L190.909,288.758L204.545,288.605L218.182,286.923L231.818,285.538L245.455,285.356L259.091,285.611L272.727,283.707L286.364,283.198L300,276.723" stroke="#72b7b2" stroke-width="2"/></g></g><path class="foreground" aria-hidden="true" d="" display="none"/></g><g transform="translate(0,0)"><path class="background" aria-hidden="true" d="M0,0h300v300h-300Z"/><g><g class="mark-line role-mark marks" role="graphics-object" aria-roledescription="line mark container"><path aria-label="Year: 1999; AIAN Drug-Related Death Rate per 100k persons: 9.422; State: CO" role="graphics-symbol" aria-roledescription="line mark" d="M13.636,292.934L27.273,281.726L40.909,285.278L54.545,285.911L68.182,279.527L81.818,285.849L95.455,283.34L109.091,278.133L122.727,282.024L136.364,277.709L150,274.615L163.636,290.323L177.273,282.804L190.909,270.69L204.545,266.794L218.182,250.328L231.818,264.401L245.455,257.229L259.091,256.985L272.727,244.794L286.364,243.808L300,247.613" stroke="#54a24b" stroke-width="2"/></g></g><path class="foreground" aria-hidden="true" d="" display="none"/></g><g transform="translate(0,0)"><path class="background" aria-hidden="true" d="M0,0h300v300h-300Z"/><g><g class="mark-line role-mark marks" role="graphics-object" aria-roledescription="line mark container"><path aria-label="Year: 1999; AIAN Drug-Related Death Rate per 100k persons: 0; State: CT" role="graphics-symbol" aria-roledescription="line mark" d="M13.636,300L27.273,270.765L40.909,272.278L54.545,273.542L68.182,275.027L81.818,275.885L95.455,276.829L109.091,277.832L122.727,278.725L136.364,279.662L150,280.528L163.636,281.264L177.273,281.631L190.909,282.193L204.545,282.867L218.182,282.879L231.818,283.393L245.455,283.454L259.091,283.721L272.727,284.069L286.364,284.543L300,285.879" stroke="#eeca3b" stroke-width="2"/></g></g><path class="foreground" aria-hidden="true" d="" display="none"/></g><g transform="translate(0,0)"><path class="background" aria-hidden="true" d="M0,0h300v300h-300Z"/><g><g class="mark-line role-mark marks" role="graphics-object" aria-roledescription="line mark container"><path aria-label="Year: 1999; AIAN Drug-Related Death Rate per 100k persons: 8.208; State: FL" role="graphics-symbol" aria-roledescription="line mark" d="M13.636,293.844L27.273,294.352L40.909,294.677L54.545,294.967L68.182,295.211L81.818,287.192L95.455,273.76L109.091,265.817L122.727,275.044L136.364,268.633L150,276.151L163.636,267.532L177.273,277.627L190.909,273.818L204.545,266.63L218.182,267.386L231.818,260.718L245.455,258.066L259.091,264.049L272.727,271.793L286.364,267.365L300,269.285" stroke="#b279a2" stroke-width="2"/></g></g><path class="foreground" aria-hidden="true" d="" display="none"/></g><g transform="translate(0,0)"><path class="background" aria-hidden="true" d="M0,0h300v300h-300Z"/><g><g class="mark-line role-mark marks" role="graphics-object" aria-roledescription="line mark container"><path aria-label="Year: 1999; AIAN Drug-Related Death Rate per 100k persons: 0; State: IA" role="graphics-symbol" aria-roledescription="line mark" d="M13.636,300L27.273,264.296L40.909,265.59L54.545,300L68.182,268.261L81.818,269.557L95.455,300L109.091,271.683L122.727,273.041L136.364,274.058L150,275.08L163.636,275.693L177.273,243.463L190.909,229.99L204.545,277.641L218.182,247.868L231.818,249.259L245.455,233.411L259.091,238.775L272.727,208.595L286.364,218.305L300,209.552" stroke="#ff9da6" stroke-width="2"/></g></g><path class="foreground" aria-hidden="true" d="" display="none"/></g><g transform="translate(0,0)"><path class="background" aria-hidden="true" d="M0,0h300v300h-300Z"/><g><g class="mark-line role-mark marks" role="graphics-object" aria-roledescription="line mark container"><path aria-label="Year: 1999; AIAN Drug-Related Death Rate per 100k persons: 25.873; State: ID" role="graphics-symbol" aria-roledescription="line mark" d="M13.636,280.595L27.273,300L40.909,282.435L54.545,282.995L68.182,237.26L81.818,248.852L95.455,217.897L109.091,250.356L122.727,238.475L136.364,238.395L150,227.406L163.636,254.699L177.273,238.857L190.909,236.981L204.545,210.355L218.182,238.001L231.818,234.9L245.455,225.478L259.091,222.485L272.727,207.121L286.364,196.626L300,223.307" stroke="#9d755d" stroke-width="2"/></g></g><path class="foreground" aria-hidden="true" d="" display="none"/></g><g transform="translate(0,0)"><path class="background" aria-hidden="true" d="M0,0h300v300h-300Z"/><g><g class="mark-line role-mark marks" role="graphics-object" aria-roledescription="line mark container"><path aria-label="Year: 1999; AIAN Drug-Related Death Rate per 100k persons: 0; State: IN" role="graphics-symbol" aria-roledescription="line mark" d="M13.636,300L27.273,280.94L40.909,300L54.545,300L68.182,300L81.818,283.589L95.455,300L109.091,284.911L122.727,285.46L136.364,266.651L150,286.661L163.636,287.082L177.273,287.331L190.909,262.757L204.545,270.743L218.182,287.955L231.818,259.673L245.455,260.035L259.091,269.918L272.727,272.726L286.364,273.25L300,250.466" stroke="#bab0ac" stroke-width="2"/></g></g><path class="foreground" aria-hidden="true" d="" display="none"/></g><g transform="translate(0,0)"><path class="background" aria-hidden="true" d="M0,0h300v300h-300Z"/><g><g class="mark-line role-mark marks" role="graphics-object" aria-roledescription="line mark container"><path aria-label="Year: 1999; AIAN Drug-Related Death Rate per 100k persons: 17.525; State: KS" role="graphics-symbol" aria-roledescription="line mark" d="M13.636,286.856L27.273,287.873L40.909,288.143L54.545,288.484L68.182,288.756L81.818,289.035L95.455,155.183L109.091,187.721L122.727,186.185L136.364,221.129L150,224.281L163.636,165.35L177.273,216.968L190.909,201.17L204.545,205.763L218.182,190.917L231.818,187.664L245.455,201.239L259.091,171.708L272.727,186.475L286.364,192.309L300,121.812" stroke="#4c78a8" stroke-width="2"/></g></g><path class="foreground" aria-hidden="true" d="" display="none"/></g><g transform="translate(0,0)"><path class="background" aria-hidden="true" d="M0,0h300v300h-300Z"/><g><g class="mark-line role-mark marks" role="graphics-object" aria-roledescription="line mark container"><path aria-label="Year: 1999; AIAN Drug-Related Death Rate per 100k persons: 0; State: LA" role="graphics-symbol" aria-roledescription="line mark" d="M13.636,300L27.273,286.73L40.909,287.003L54.545,287.39L68.182,287.721L81.818,288.1L95.455,288.423L109.091,288.096L122.727,288.526L136.364,288.996L150,289.339L163.636,289.626L177.273,289.798L190.909,279.995L204.545,254.782L218.182,267.053L231.818,253.913L245.455,256.292L259.091,260.705L272.727,264.412L286.364,245.793L300,224.51" stroke="#f58518" stroke-width="2"/></g></g><path class="foreground" aria-hidden="true" d="" display="none"/></g><g transform="translate(0,0)"><path class="background" aria-hidden="true" d="M0,0h300v300h-300Z"/><g><g class="mark-line role-mark marks" role="graphics-object" aria-roledescription="line mark container"><path aria-label="Year: 1999; AIAN Drug-Related Death Rate per 100k persons: 25.369; State: MA" role="graphics-symbol" aria-roledescription="line mark" d="M13.636,280.973L27.273,300L40.909,300L54.545,300L68.182,285.029L81.818,285.786L95.455,286.474L109.091,287.109L122.727,287.719L136.364,288.331L150,288.932L163.636,289.33L177.273,289.517L190.909,289.763L204.545,290.001L218.182,290.239L231.818,273.011L245.455,271.397L259.091,254.937L272.727,267.104L286.364,274.518L300,275.299" stroke="#e45756" stroke-width="2"/></g></g><path class="foreground" aria-hidden="true" d="" display="none"/></g><g transform="translate(0,0)"><path class="background" aria-hidden="true" d="M0,0h300v300h-300Z"/><g><g class="mark-line role-mark marks" role="graphics-object" aria-roledescription="line mark container"><path aria-label="Year: 1999; AIAN Drug-Related Death Rate per 100k persons: 66.007; State: ME" role="graphics-symbol" aria-roledescription="line mark" d="M13.636,250.495L27.273,254.413L40.909,300L54.545,256.822L68.182,258.073L81.818,258.832L95.455,259.97L109.091,260.806L122.727,261.937L136.364,263.032L150,263.963L163.636,264.282L177.273,264.583L190.909,229.132L204.545,160.892L218.182,135.059L231.818,101.967L245.455,131.793L259.091,174.372L272.727,58.612L286.364,74.775L300,117.977" stroke="#72b7b2" stroke-width="2"/></g></g><path class="foreground" aria-hidden="true" d="" display="none"/></g><g transform="translate(0,0)"><path class="background" aria-hidden="true" d="M0,0h300v300h-300Z"/><g><g class="mark-line role-mark marks" role="graphics-object" aria-roledescription="line mark container"><path aria-label="Year: 1999; AIAN Drug-Related Death Rate per 100k persons: 27.967; State: MI" role="graphics-symbol" aria-roledescription="line mark" d="M13.636,279.025L27.273,286.829L40.909,273.983L54.545,282.251L68.182,271.805L81.818,212.775L95.455,189.427L109.091,178.049L122.727,195.025L136.364,199.989L150,169.576L163.636,193.27L177.273,173.864L190.909,163.368L204.545,155.591L218.182,143.964L231.818,160.14L245.455,130.857L259.091,160.738L272.727,149.422L286.364,169.699L300,161.8" stroke="#54a24b" stroke-width="2"/></g></g><path class="foreground" aria-hidden="true" d="" display="none"/></g><g transform="translate(0,0)"><path class="background" aria-hidden="true" d="M0,0h300v300h-300Z"/><g><g class="mark-line role-mark marks" role="graphics-object" aria-roledescription="line mark container"><path aria-label="Year: 1999; AIAN Drug-Related Death Rate per 100k persons: 21.683; State: MN" role="graphics-symbol" aria-roledescription="line mark" d="M13.636,283.738L27.273,280.853L40.909,283.602L54.545,273.584L68.182,278.606L81.818,266.968L95.455,273.221L109.091,261.335L122.727,260.323L136.364,266.336L150,260.898L163.636,253.849L177.273,189.847L190.909,180.437L204.545,176.93L218.182,146.042L231.818,143.085L245.455,122.753L259.091,86.458L272.727,107.48L286.364,76.63L300,24.84" stroke="#eeca3b" stroke-width="2"/></g></g><path class="foreground" aria-hidden="true" d="" display="none"/></g><g transform="translate(0,0)"><path class="background" aria-hidden="true" d="M0,0h300v300h-300Z"/><g><g class="mark-line role-mark marks" role="graphics-object" aria-roledescription="line mark container"><path aria-label="Year: 1999; AIAN Drug-Related Death Rate per 100k persons: 0; State: MO" role="graphics-symbol" aria-roledescription="line mark" d="M13.636,300L27.273,288.236L40.909,300L54.545,288.554L68.182,288.776L81.818,289.047L95.455,289.258L109.091,289.482L122.727,289.726L136.364,289.988L150,290.198L163.636,257.74L177.273,262.391L190.909,238.631L204.545,246.879L218.182,247.908L231.818,255.979L245.455,263.379L259.091,238.557L272.727,244.293L286.364,245.578L300,231.896" stroke="#b279a2" stroke-width="2"/></g></g><path class="foreground" aria-hidden="true" d="" display="none"/></g><g transform="translate(0,0)"><path class="background" aria-hidden="true" d="M0,0h300v300h-300Z"/><g><g class="mark-line role-mark marks" role="graphics-object" aria-roledescription="line mark container"><path aria-label="Year: 1999; AIAN Drug-Related Death Rate per 100k persons: 0; State: MS" role="graphics-symbol" aria-roledescription="line mark" d="M13.636,300L27.273,300L40.909,300L54.545,300L68.182,273.18L81.818,274.307L95.455,275.205L109.091,300L122.727,276.785L136.364,277.615L150,300L163.636,278.789L177.273,279.205L190.909,279.593L204.545,279.506L218.182,279.647L231.818,279.931L245.455,280.15L259.091,280.395L272.727,280.62L286.364,280.923L300,223.317" stroke="#ff9da6" stroke-width="2"/></g></g><path class="foreground" aria-hidden="true" d="" display="none"/></g><g transform="translate(0,0)"><path class="background" aria-hidden="true" d="M0,0h300v300h-300Z"/><g><g class="mark-line role-mark marks" role="graphics-object" aria-roledescription="line mark container"><path aria-label="Year: 1999; AIAN Drug-Related Death Rate per 100k persons: 22.183; State: MT" role="graphics-symbol" aria-roledescription="line mark" d="M13.636,283.363L27.273,282.5L40.909,271.641L54.545,273.174L68.182,210.951L81.818,194.336L95.455,196.301L109.091,186.026L122.727,199.303L136.364,199.556L150,199.037L163.636,195.065L177.273,163.004L190.909,180.073L204.545,168.545L218.182,167.184L231.818,136.656L245.455,163.191L259.091,110.02L272.727,126.476L286.364,129.793L300,95.497" stroke="#9d755d" stroke-width="2"/></g></g><path class="foreground" aria-hidden="true" d="" display="none"/></g><g transform="translate(0,0)"><path class="background" aria-hidden="true" d="M0,0h300v300h-300Z"/><g><g class="mark-line role-mark marks" role="graphics-object" aria-roledescription="line mark container"><path aria-label="Year: 1999; AIAN Drug-Related Death Rate per 100k persons: 4.912; State: NC" role="graphics-symbol" aria-roledescription="line mark" d="M13.636,296.316L27.273,286.636L40.909,282.578L54.545,282.619L68.182,283.277L81.818,280.324L95.455,280.489L109.091,276.305L122.727,281.997L136.364,277.577L150,277.441L163.636,277.118L177.273,275.483L190.909,278.075L204.545,277.028L218.182,226.36L231.818,231.593L245.455,224.691L259.091,215.006L272.727,203.225L286.364,210.255L300,180.575" stroke="#bab0ac" stroke-width="2"/></g></g><path class="foreground" aria-hidden="true" d="" display="none"/></g><g transform="translate(0,0)"><path class="background" aria-hidden="true" d="M0,0h300v300h-300Z"/><g><g class="mark-line role-mark marks" role="graphics-object" aria-roledescription="line mark container"><path aria-label="Year: 1999; AIAN Drug-Related Death Rate per 100k persons: 79.358; State: ND" role="graphics-symbol" aria-roledescription="line mark" d="M13.636,240.482L27.273,203.861L40.909,209.5L54.545,179.804L68.182,164.142L81.818,164.9L95.455,196.706L109.091,178.538L122.727,200.925L136.364,177.228L150,159.788L163.636,127.824L177.273,190.928L190.909,183.953L204.545,169.739L218.182,148.527L231.818,139.35L245.455,120.374L259.091,137.194L272.727,139.052L286.364,128.053L300,79.407" stroke="#4c78a8" stroke-width="2"/></g></g><path class="foreground" aria-hidden="true" d="" display="none"/></g><g transform="translate(0,0)"><path class="background" aria-hidden="true" d="M0,0h300v300h-300Z"/><g><g class="mark-line role-mark marks" role="graphics-object" aria-roledescription="line mark container"><path aria-label="Year: 1999; AIAN Drug-Related Death Rate per 100k persons: 0; State: NE" role="graphics-symbol" aria-roledescription="line mark" d="M13.636,300L27.273,277.891L40.909,300L54.545,279.696L68.182,245.386L81.818,240.239L95.455,217.982L109.091,225.609L122.727,228.76L136.364,254.363L150,258.337L163.636,239.159L177.273,214.491L190.909,246.846L204.545,253.866L218.182,220.627L231.818,228.083L245.455,222.616L259.091,241.628L272.727,254.936L286.364,248.899L300,235.82" stroke="#f58518" stroke-width="2"/></g></g><path class="foreground" aria-hidden="true" d="" display="none"/></g><g transform="translate(0,0)"><path class="background" aria-hidden="true" d="M0,0h300v300h-300Z"/><g><g class="mark-line role-mark marks" role="graphics-object" aria-roledescription="line mark container"><path aria-label="Year: 1999; AIAN Drug-Related Death Rate per 100k persons: 2.795; State: NM" role="graphics-symbol" aria-roledescription="line mark" d="M13.636,297.904L27.273,293.122L40.909,298.019L54.545,294.943L68.182,293.123L81.818,292.111L95.455,290.378L109.091,282.835L122.727,278.834L136.364,275.047L150,280.372L163.636,280.282L177.273,277.415L190.909,270.344L204.545,278.633L218.182,272.237L231.818,265.68L245.455,265.458L259.091,260.262L272.727,264.531L286.364,258.241L300,248.205" stroke="#e45756" stroke-width="2"/></g></g><path class="foreground" aria-hidden="true" d="" display="none"/></g><g transform="translate(0,0)"><path class="background" aria-hidden="true" d="M0,0h300v300h-300Z"/><g><g class="mark-line role-mark marks" role="graphics-object" aria-roledescription="line mark container"><path aria-label="Year: 1999; AIAN Drug-Related Death Rate per 100k persons: 16.241; State: NV" role="graphics-symbol" aria-roledescription="line mark" d="M13.636,287.819L27.273,300L40.909,288.911L54.545,289.396L68.182,289.89L81.818,271.231L95.455,290.878L109.091,279.254L122.727,291.812L136.364,274.788L150,281.598L163.636,280.407L177.273,269.173L190.909,257.913L204.545,270.07L218.182,263.938L231.818,268.864L245.455,246.766L259.091,269.009L272.727,253.345L286.364,238.397L300,244.712" stroke="#72b7b2" stroke-width="2"/></g></g><path class="foreground" aria-hidden="true" d="" display="none"/></g><g transform="translate(0,0)"><path class="background" aria-hidden="true" d="M0,0h300v300h-300Z"/><g><g class="mark-line role-mark marks" role="graphics-object" aria-roledescription="line mark container"><path aria-label="Year: 1999; AIAN Drug-Related Death Rate per 100k persons: 4.397; State: NY" role="graphics-symbol" aria-roledescription="line mark" d="M13.636,296.702L27.273,296.885L40.909,293.098L54.545,297.307L68.182,282.257L81.818,282.289L95.455,288.669L109.091,278.949L122.727,283.707L136.364,281.154L150,286.565L163.636,279.733L177.273,281.317L190.909,285.251L204.545,281.98L218.182,281.513L231.818,278.939L245.455,275.073L259.091,275.65L272.727,278.289L286.364,273.867L300,272.645" stroke="#54a24b" stroke-width="2"/></g></g><path class="foreground" aria-hidden="true" d="" display="none"/></g><g transform="translate(0,0)"><path class="background" aria-hidden="true" d="M0,0h300v300h-300Z"/><g><g class="mark-line role-mark marks" role="graphics-object" aria-roledescription="line mark container"><path aria-label="Year: 1999; AIAN Drug-Related Death Rate per 100k persons: 8.119; State: OK" role="graphics-symbol" aria-roledescription="line mark" d="M13.636,293.911L27.273,295.679L40.909,293.415L54.545,293.54L68.182,290.949L81.818,236.912L95.455,226.045L109.091,218.75L122.727,214.183L136.364,221.282L150,223.434L163.636,214.004L177.273,219.305L190.909,218.791L204.545,222.986L218.182,215.981L231.818,217.645L245.455,214.316L259.091,217.403L272.727,211.976L286.364,217.937L300,209.306" stroke="#eeca3b" stroke-width="2"/></g></g><path class="foreground" aria-hidden="true" d="" display="none"/></g><g transform="translate(0,0)"><path class="background" aria-hidden="true" d="M0,0h300v300h-300Z"/><g><g class="mark-line role-mark marks" role="graphics-object" aria-roledescription="line mark container"><path aria-label="Year: 1999; AIAN Drug-Related Death Rate per 100k persons: 23.492; State: OR" role="graphics-symbol" aria-roledescription="line mark" d="M13.636,282.381L27.273,286.854L40.909,284.758L54.545,280.316L68.182,220.235L81.818,206.625L95.455,216.803L109.091,213.355L122.727,219.091L136.364,213.611L150,215.129L163.636,211.965L177.273,224.749L190.909,231.544L204.545,220.926L218.182,203.051L231.818,213.484L245.455,208.207L259.091,190.346L272.727,210.065L286.364,206.465L300,175.747" stroke="#b279a2" stroke-width="2"/></g></g><path class="foreground" aria-hidden="true" d="" display="none"/></g><g transform="translate(0,0)"><path class="background" aria-hidden="true" d="M0,0h300v300h-300Z"/><g><g class="mark-line role-mark marks" role="graphics-object" aria-roledescription="line mark container"><path aria-label="Year: 1999; AIAN Drug-Related Death Rate per 100k persons: 0; State: RI" role="graphics-symbol" aria-roledescription="line mark" d="M13.636,300L27.273,244.196L40.909,247.272L54.545,250.265L68.182,253.073L81.818,300L95.455,257.187L109.091,258.971L122.727,259.786L136.364,261.368L150,226.413L163.636,264.279L177.273,264.425L190.909,264.944L204.545,265.807L218.182,266.835L231.818,235.115L245.455,268.677L259.091,227.173L272.727,270.452L286.364,270.845L300,232.931" stroke="#ff9da6" stroke-width="2"/></g></g><path class="foreground" aria-hidden="true" d="" display="none"/></g><g transform="translate(0,0)"><path class="background" aria-hidden="true" d="M0,0h300v300h-300Z"/><g><g class="mark-line role-mark marks" role="graphics-object" aria-roledescription="line mark container"><path aria-label="Year: 1999; AIAN Drug-Related Death Rate per 100k persons: 0; State: SC" role="graphics-symbol" aria-roledescription="line mark" d="M13.636,300L27.273,276.081L40.909,277.288L54.545,278.691L68.182,300L81.818,300L95.455,263.749L109.091,252.349L122.727,284.018L136.364,270.058L150,285.566L163.636,272.033L177.273,239.312L190.909,272.756L204.545,267.873L218.182,273.542L231.818,263.687L245.455,274.597L259.091,267.491L272.727,265.487L286.364,263.771L300,234.342" stroke="#9d755d" stroke-width="2"/></g></g><path class="foreground" aria-hidden="true" d="" display="none"/></g><g transform="translate(0,0)"><path class="background" aria-hidden="true" d="M0,0h300v300h-300Z"/><g><g class="mark-line role-mark marks" role="graphics-object" aria-roledescription="line mark container"><path aria-label="Year: 1999; AIAN Drug-Related Death Rate per 100k persons: 7.915; State: SD" role="graphics-symbol" aria-roledescription="line mark" d="M13.636,294.064L27.273,283.877L40.909,286.411L54.545,294.414L68.182,289.015L81.818,196.5L95.455,203.333L109.091,230.152L122.727,223.322L136.364,204.734L150,211.225L163.636,202.841L177.273,201.591L190.909,201.944L204.545,194.873L218.182,218.172L231.818,179.522L245.455,178.579L259.091,178.891L272.727,184.832L286.364,179.545L300,155.129" stroke="#bab0ac" stroke-width="2"/></g></g><path class="foreground" aria-hidden="true" d="" display="none"/></g><g transform="translate(0,0)"><path class="background" aria-hidden="true" d="M0,0h300v300h-300Z"/><g><g class="mark-line role-mark marks" role="graphics-object" aria-roledescription="line mark container"><path aria-label="Year: 1999; AIAN Drug-Related Death Rate per 100k persons: 0; State: TN" role="graphics-symbol" aria-roledescription="line mark" d="M13.636,300L27.273,278.429L40.909,300L54.545,280.544L68.182,300L81.818,282.378L95.455,283.186L109.091,283.984L122.727,285.238L136.364,285.934L150,286.536L163.636,286.795L177.273,287.042L190.909,269.431L204.545,275.061L218.182,287.942L231.818,288.218L245.455,265.212L259.091,264.053L272.727,258.511L286.364,246.878L300,258.971" stroke="#4c78a8" stroke-width="2"/></g></g><path class="foreground" aria-hidden="true" d="" display="none"/></g><g transform="translate(0,0)"><path class="background" aria-hidden="true" d="M0,0h300v300h-300Z"/><g><g class="mark-line role-mark marks" role="graphics-object" aria-roledescription="line mark container"><path aria-label="Year: 1999; AIAN Drug-Related Death Rate per 100k persons: 3.694; State: TX" role="graphics-symbol" aria-roledescription="line mark" d="M13.636,297.23L27.273,297.535L40.909,297.674L54.545,297.788L68.182,286.965L81.818,288.057L95.455,290.597L109.091,284.853L122.727,287.798L136.364,291.697L150,288.83L163.636,291.304L177.273,289.89L190.909,290.499L204.545,288.875L218.182,286.127L231.818,286.682L245.455,285.647L259.091,286.576L272.727,285.136L286.364,285.118L300,285.441" stroke="#f58518" stroke-width="2"/></g></g><path class="foreground" aria-hidden="true" d="" display="none"/></g><g transform="translate(0,0)"><path class="background" aria-hidden="true" d="M0,0h300v300h-300Z"/><g><g class="mark-line role-mark marks" role="graphics-object" aria-roledescription="line mark container"><path aria-label="Year: 1999; AIAN Drug-Related Death Rate per 100k persons: 15.296; State: UT" role="graphics-symbol" aria-roledescription="line mark" d="M13.636,288.528L27.273,288.884L40.909,289.108L54.545,289.387L68.182,277.059L81.818,275.509L95.455,262.475L109.091,290.491L122.727,260.107L136.364,279.081L150,261.337L163.636,264.157L177.273,260.656L190.909,265.44L204.545,267.8L218.182,253.951L231.818,272.642L245.455,258.116L259.091,259.691L272.727,242.966L286.364,248.195L300,245.211" stroke="#e45756" stroke-width="2"/></g></g><path class="foreground" aria-hidden="true" d="" display="none"/></g><g transform="translate(0,0)"><path class="background" aria-hidden="true" d="M0,0h300v300h-300Z"/><g><g class="mark-line role-mark marks" role="graphics-object" aria-roledescription="line mark container"><path aria-label="Year: 1999; AIAN Drug-Related Death Rate per 100k persons: 24.538; State: WA" role="graphics-symbol" aria-roledescription="line mark" d="M13.636,281.597L27.273,287.278L40.909,279.152L54.545,276.421L68.182,270.775L81.818,218.101L95.455,224.976L109.091,231.677L122.727,220.094L136.364,204.196L150,217.09L163.636,204.615L177.273,203.714L190.909,193.651L204.545,208.456L218.182,188.077L231.818,194.185L245.455,187.602L259.091,178.058L272.727,177.877L286.364,180.269L300,161.186" stroke="#72b7b2" stroke-width="2"/></g></g><path class="foreground" aria-hidden="true" d="" display="none"/></g><g transform="translate(0,0)"><path class="background" aria-hidden="true" d="M0,0h300v300h-300Z"/><g><g class="mark-line role-mark marks" role="graphics-object" aria-roledescription="line mark container"><path aria-label="Year: 1999; AIAN Drug-Related Death Rate per 100k persons: 9.894; State: WI" role="graphics-symbol" aria-roledescription="line mark" d="M13.636,292.58L27.273,292.937L40.909,293.071L54.545,282.441L68.182,206.476L81.818,199.654L95.455,182.294L109.091,204.541L122.727,177.601L136.364,193.38L150,183.248L163.636,171.538L177.273,177.809L190.909,167.846L204.545,173.276L218.182,176.308L231.818,179.924L245.455,185.201L259.091,153.041L272.727,149.975L286.364,160.076L300,108.877" stroke="#54a24b" stroke-width="2"/></g></g><path class="foreground" aria-hidden="true" d="" display="none"/></g><g transform="translate(0,0)"><path class="background" aria-hidden="true" d="M0,0h300v300h-300Z"/><g><g class="mark-line role-mark marks" role="graphics-object" aria-roledescription="line mark container"><path aria-label="Year: 1999; AIAN Drug-Related Death Rate per 100k persons: 0; State: WY" role="graphics-symbol" aria-roledescription="line mark" d="M13.636,300L27.273,269.413L40.909,270.347L54.545,270.941L68.182,271.183L81.818,271.874L95.455,272.443L109.091,162.093L122.727,187.824L136.364,231.125L150,242.562L163.636,219.543L177.273,253.658L190.909,144.985L204.545,223.699L218.182,225.269L231.818,213.529L245.455,195.875L259.091,217.759L272.727,196.984L286.364,179.324L300,129.527" stroke="#eeca3b" stroke-width="2"/></g></g><path class="foreground" aria-hidden="true" d="" display="none"/></g></g><g class="mark-group role-title"><g transform="translate(150,-22)"><path class="background" aria-hidden="true" d="M0,0h0v0h0Z" pointer-events="none"/><g><g class="mark-text role-title-text" role="graphics-symbol" aria-roledescription="title" aria-label="Title text 'The Opiods Epidemic Came to Different States at Different Times'" pointer-events="none"><text text-anchor="middle" transform="translate(0,10)" font-family="sans-serif" font-size="13px" font-weight="bold" fill="#000" opacity="1">The Opiods Epidemic Came to Different States at Different Times</text></g></g><path class="foreground" aria-hidden="true" d="" pointer-events="none" display="none"/></g></g></g><path class="foreground" aria-hidden="true" d="" display="none"/></g></g></g></svg>