<?xml version="1.0" encoding="UTF-8" standalone="no"?>
<svg
   version="1.1"
   class="marks"
   width="651"
   height="390"
   viewBox="0 0 651 390"
   id="svg83"
   sodipodi:docname="vis5.svg"
   inkscape:version="1.4 (e7c3feb1, 2024-10-09)"
   xmlns:inkscape="http://www.inkscape.org/namespaces/inkscape"
   xmlns:sodipodi="http://sodipodi.sourceforge.net/DTD/sodipodi-0.dtd"
   xmlns="http://www.w3.org/2000/svg"
   xmlns:svg="http://www.w3.org/2000/svg">
  <defs
     id="defs83" />
  <sodipodi:namedview
     id="namedview83"
     pagecolor="#ffffff"
     bordercolor="#000000"
     borderopacity="0.25"
     inkscape:showpageshadow="2"
     inkscape:pageopacity="0.0"
     inkscape:pagecheckerboard="0"
     inkscape:deskcolor="#d1d1d1"
     inkscape:zoom="0.91103642"
     inkscape:cx="388.01961"
     inkscape:cy="173.97768"
     inkscape:window-width="1440"
     inkscape:window-height="900"
     inkscape:window-x="0"
     inkscape:window-y="0"
     inkscape:window-maximized="0"
     inkscape:current-layer="svg83" />
  <rect
     width="652"
     height="364"
     fill="#ffffff"
     id="rect1"
     x="0"
     y="0" />
  <text
     xml:space="preserve"
     style="font-style:normal;font-variant:normal;font-weight:normal;font-stretch:normal;font-size:9.33333px;line-height:1;font-family:'.Al Nile PUA';-inkscape-font-specification:'.Al Nile PUA, Normal';font-variant-ligatures:normal;font-variant-caps:normal;font-variant-numeric:normal;font-variant-east-asian:normal;text-align:start;writing-mode:lr-tb;direction:ltr;text-anchor:start;fill:#060606;fill-opacity:1"
     x="484.96628"
     y="275.96747"
     id="text52-8-7"><tspan
       sodipodi:role="line"
       id="tspan1"
       x="484.96628"
       y="275.96747">*Plots are based on </tspan><tspan
       sodipodi:role="line"
       id="tspan2"
       x="484.96628"
       y="286.47998">state-level data</tspan><tspan
       sodipodi:role="line"
       id="tspan3"
       x="484.96628"
       y="295.81329"></tspan><tspan
       sodipodi:role="line"
       id="tspan4"
       x="484.96628"
       y="306.32581">*Density is an estimate of the </tspan><tspan
       sodipodi:role="line"
       id="tspan5"
       x="484.96628"
       y="316.83829">proportion of observations at</tspan><tspan
       sodipodi:role="line"
       id="tspan6"
       x="484.96628"
       y="327.3508">a specific value</tspan></text>
  <g
     fill="none"
     stroke-miterlimit="10"
     transform="translate(176,41)"
     id="g83">
    <g
       class="mark-group role-frame root"
       role="graphics-object"
       aria-roledescription="group mark container"
       id="g82">
      <g
         id="g81"
         style="display:inline">
        <path
           class="background"
           aria-hidden="true"
           d="m 0.5,0.5 h 300 v 300 H 0.5 Z"
           stroke="#dddddd"
           id="path1"
           style="display:inline" />
        <g
           id="g80"
           style="display:inline">
          <g
             class="mark-group role-axis"
             role="graphics-symbol"
             aria-roledescription="axis"
             aria-label="X-axis titled 'AIAN Drug-Related Deaths Per 100K' for a linear scale with values from 0 to 400"
             id="g23"
             style="display:inline">
            <g
               transform="translate(0.5,300.5)"
               id="g22">
              <path
                 class="background"
                 aria-hidden="true"
                 d="M 0,0 Z"
                 pointer-events="none"
                 id="path2" />
              <g
                 id="g21">
                <g
                   class="mark-rule role-axis-tick"
                   pointer-events="none"
                   id="g10">
                  <line
                     x2="0"
                     y2="5"
                     stroke="#888888"
                     stroke-width="1"
                     opacity="1"
                     id="line2"
                     x1="0"
                     y1="0" />
                  <line
                     transform="translate(38)"
                     x2="0"
                     y2="5"
                     stroke="#888888"
                     stroke-width="1"
                     opacity="1"
                     id="line3"
                     x1="0"
                     y1="0" />
                  <line
                     transform="translate(75)"
                     x2="0"
                     y2="5"
                     stroke="#888888"
                     stroke-width="1"
                     opacity="1"
                     id="line4"
                     x1="0"
                     y1="0" />
                  <line
                     transform="translate(113)"
                     x2="0"
                     y2="5"
                     stroke="#888888"
                     stroke-width="1"
                     opacity="1"
                     id="line5"
                     x1="0"
                     y1="0" />
                  <line
                     transform="translate(150)"
                     x2="0"
                     y2="5"
                     stroke="#888888"
                     stroke-width="1"
                     opacity="1"
                     id="line6"
                     x1="0"
                     y1="0" />
                  <line
                     transform="translate(188)"
                     x2="0"
                     y2="5"
                     stroke="#888888"
                     stroke-width="1"
                     opacity="1"
                     id="line7"
                     x1="0"
                     y1="0" />
                  <line
                     transform="translate(225)"
                     x2="0"
                     y2="5"
                     stroke="#888888"
                     stroke-width="1"
                     opacity="1"
                     id="line8"
                     x1="0"
                     y1="0" />
                  <line
                     transform="translate(263)"
                     x2="0"
                     y2="5"
                     stroke="#888888"
                     stroke-width="1"
                     opacity="1"
                     id="line9"
                     x1="0"
                     y1="0" />
                  <line
                     transform="translate(300)"
                     x2="0"
                     y2="5"
                     stroke="#888888"
                     stroke-width="1"
                     opacity="1"
                     id="line10"
                     x1="0"
                     y1="0" />
                </g>
                <g
                   class="mark-text role-axis-label"
                   pointer-events="none"
                   id="g18">
                  <text
                     text-anchor="start"
                     transform="translate(0,15)"
                     font-family="sans-serif"
                     font-size="10px"
                     fill="#000000"
                     opacity="1"
                     id="text10">0</text>
                  <text
                     text-anchor="middle"
                     transform="translate(37.5,15)"
                     font-family="sans-serif"
                     font-size="10px"
                     fill="#000000"
                     opacity="1"
                     id="text11">50</text>
                  <text
                     text-anchor="middle"
                     transform="translate(75,15)"
                     font-family="sans-serif"
                     font-size="10px"
                     fill="#000000"
                     opacity="1"
                     id="text12">100</text>
                  <text
                     text-anchor="middle"
                     transform="translate(112.5,15)"
                     font-family="sans-serif"
                     font-size="10px"
                     fill="#000000"
                     opacity="1"
                     id="text13">150</text>
                  <text
                     text-anchor="middle"
                     transform="translate(150,15)"
                     font-family="sans-serif"
                     font-size="10px"
                     fill="#000000"
                     opacity="1"
                     id="text14">200</text>
                  <text
                     text-anchor="middle"
                     transform="translate(187.5,15)"
                     font-family="sans-serif"
                     font-size="10px"
                     fill="#000000"
                     opacity="1"
                     id="text15">250</text>
                  <text
                     text-anchor="middle"
                     transform="translate(225,15)"
                     font-family="sans-serif"
                     font-size="10px"
                     fill="#000000"
                     opacity="1"
                     id="text16">300</text>
                  <text
                     text-anchor="middle"
                     transform="translate(262.5,15)"
                     font-family="sans-serif"
                     font-size="10px"
                     fill="#000000"
                     opacity="1"
                     id="text17">350</text>
                  <text
                     text-anchor="end"
                     transform="translate(300,15)"
                     font-family="sans-serif"
                     font-size="10px"
                     fill="#000000"
                     opacity="1"
                     id="text18">400</text>
                </g>
                <g
                   class="mark-rule role-axis-domain"
                   pointer-events="none"
                   id="g19">
                  <line
                     x2="300"
                     y2="0"
                     stroke="#888888"
                     stroke-width="1"
                     opacity="1"
                     id="line18"
                     x1="0"
                     y1="0" />
                </g>
                <g
                   class="mark-text role-axis-title"
                   pointer-events="none"
                   id="g20">
                  <text
                     text-anchor="middle"
                     transform="translate(150,30)"
                     font-family="sans-serif"
                     font-size="11px"
                     font-weight="bold"
                     fill="#000000"
                     opacity="1"
                     id="text19">AIAN Drug-Related Deaths Per 100K</text>
                </g>
              </g>
              <path
                 class="foreground"
                 aria-hidden="true"
                 d=""
                 pointer-events="none"
                 display="none"
                 id="path21" />
            </g>
          </g>
          <g
             class="mark-group role-axis"
             role="graphics-symbol"
             aria-roledescription="axis"
             aria-label="Y-axis titled 'Density' for a linear scale with values from 0.000 to 0.011"
             id="g50"
             style="display:inline">
            <g
               transform="translate(0.5,0.5)"
               id="g49">
              <path
                 class="background"
                 aria-hidden="true"
                 d="M 0,0 Z"
                 pointer-events="none"
                 id="path23" />
              <g
                 id="g48">
                <g
                   class="mark-rule role-axis-tick"
                   pointer-events="none"
                   id="g34">
                  <line
                     transform="translate(0,300)"
                     x2="-5"
                     y2="0"
                     stroke="#888888"
                     stroke-width="1"
                     opacity="1"
                     id="line23"
                     x1="0"
                     y1="0" />
                  <line
                     transform="translate(0,273)"
                     x2="-5"
                     y2="0"
                     stroke="#888888"
                     stroke-width="1"
                     opacity="1"
                     id="line24"
                     x1="0"
                     y1="0" />
                  <line
                     transform="translate(0,245)"
                     x2="-5"
                     y2="0"
                     stroke="#888888"
                     stroke-width="1"
                     opacity="1"
                     id="line25"
                     x1="0"
                     y1="0" />
                  <line
                     transform="translate(0,218)"
                     x2="-5"
                     y2="0"
                     stroke="#888888"
                     stroke-width="1"
                     opacity="1"
                     id="line26"
                     x1="0"
                     y1="0" />
                  <line
                     transform="translate(0,191)"
                     x2="-5"
                     y2="0"
                     stroke="#888888"
                     stroke-width="1"
                     opacity="1"
                     id="line27"
                     x1="0"
                     y1="0" />
                  <line
                     transform="translate(0,164)"
                     x2="-5"
                     y2="0"
                     stroke="#888888"
                     stroke-width="1"
                     opacity="1"
                     id="line28"
                     x1="0"
                     y1="0" />
                  <line
                     transform="translate(0,136)"
                     x2="-5"
                     y2="0"
                     stroke="#888888"
                     stroke-width="1"
                     opacity="1"
                     id="line29"
                     x1="0"
                     y1="0" />
                  <line
                     transform="translate(0,109)"
                     x2="-5"
                     y2="0"
                     stroke="#888888"
                     stroke-width="1"
                     opacity="1"
                     id="line30"
                     x1="0"
                     y1="0" />
                  <line
                     transform="translate(0,82)"
                     x2="-5"
                     y2="0"
                     stroke="#888888"
                     stroke-width="1"
                     opacity="1"
                     id="line31"
                     x1="0"
                     y1="0" />
                  <line
                     transform="translate(0,55)"
                     x2="-5"
                     y2="0"
                     stroke="#888888"
                     stroke-width="1"
                     opacity="1"
                     id="line32"
                     x1="0"
                     y1="0" />
                  <line
                     transform="translate(0,27)"
                     x2="-5"
                     y2="0"
                     stroke="#888888"
                     stroke-width="1"
                     opacity="1"
                     id="line33"
                     x1="0"
                     y1="0" />
                  <line
                     x2="-5"
                     y2="0"
                     stroke="#888888"
                     stroke-width="1"
                     opacity="1"
                     id="line34"
                     x1="0"
                     y1="0" />
                </g>
                <g
                   class="mark-text role-axis-label"
                   pointer-events="none"
                   id="g45">
                  <text
                     text-anchor="end"
                     transform="translate(-7,303)"
                     font-family="sans-serif"
                     font-size="10px"
                     fill="#000000"
                     opacity="1"
                     id="text34">0.000</text>
                  <text
                     text-anchor="end"
                     transform="translate(-7,275.72727)"
                     font-family="sans-serif"
                     font-size="10px"
                     fill="#000000"
                     opacity="1"
                     id="text35">0.001</text>
                  <text
                     text-anchor="end"
                     transform="translate(-7,248.45455)"
                     font-family="sans-serif"
                     font-size="10px"
                     fill="#000000"
                     opacity="1"
                     id="text36">0.002</text>
                  <text
                     text-anchor="end"
                     transform="translate(-7,221.18182)"
                     font-family="sans-serif"
                     font-size="10px"
                     fill="#000000"
                     opacity="1"
                     id="text37">0.003</text>
                  <text
                     text-anchor="end"
                     transform="translate(-7,193.90909)"
                     font-family="sans-serif"
                     font-size="10px"
                     fill="#000000"
                     opacity="1"
                     id="text38">0.004</text>
                  <text
                     text-anchor="end"
                     transform="translate(-7,166.63636)"
                     font-family="sans-serif"
                     font-size="10px"
                     fill="#000000"
                     opacity="1"
                     id="text39">0.005</text>
                  <text
                     text-anchor="end"
                     transform="translate(-7,139.36364)"
                     font-family="sans-serif"
                     font-size="10px"
                     fill="#000000"
                     opacity="1"
                     id="text40">0.006</text>
                  <text
                     text-anchor="end"
                     transform="translate(-7,112.09091)"
                     font-family="sans-serif"
                     font-size="10px"
                     fill="#000000"
                     opacity="1"
                     id="text41">0.007</text>
                  <text
                     text-anchor="end"
                     transform="translate(-7,84.818182)"
                     font-family="sans-serif"
                     font-size="10px"
                     fill="#000000"
                     opacity="1"
                     id="text42">0.008</text>
                  <text
                     text-anchor="end"
                     transform="translate(-7,57.545455)"
                     font-family="sans-serif"
                     font-size="10px"
                     fill="#000000"
                     opacity="1"
                     id="text43">0.009</text>
                  <text
                     text-anchor="end"
                     transform="translate(-7,30.272727)"
                     font-family="sans-serif"
                     font-size="10px"
                     fill="#000000"
                     opacity="1"
                     id="text44">0.010</text>
                  <text
                     text-anchor="end"
                     transform="translate(-7,3)"
                     font-family="sans-serif"
                     font-size="10px"
                     fill="#000000"
                     opacity="1"
                     id="text45">0.011</text>
                </g>
                <g
                   class="mark-rule role-axis-domain"
                   pointer-events="none"
                   id="g46">
                  <line
                     transform="translate(0,300)"
                     x2="0"
                     y2="-300"
                     stroke="#888888"
                     stroke-width="1"
                     opacity="1"
                     id="line45"
                     x1="0"
                     y1="0" />
                </g>
                <g
                   class="mark-text role-axis-title"
                   pointer-events="none"
                   id="g47">
                  <text
                     text-anchor="middle"
                     transform="rotate(-90,55.987793,94.012207)"
                     font-family="sans-serif"
                     font-size="11px"
                     font-weight="bold"
                     fill="#000000"
                     opacity="1"
                     id="text46">Density</text>
                </g>
              </g>
              <path
                 class="foreground"
                 aria-hidden="true"
                 d=""
                 pointer-events="none"
                 display="none"
                 id="path48" />
            </g>
          </g>
          <g
             class="mark-group role-scope pathgroup"
             role="graphics-object"
             aria-roledescription="group mark container"
             id="g57"
             style="display:inline">
            <g
               id="g53">
              <path
                 class="background"
                 aria-hidden="true"
                 d="M 0,0 H 300 V 300 H 0 Z"
                 id="path50" />
              <g
                 id="g52">
                <g
                   class="mark-area role-mark marks"
                   role="graphics-object"
                   aria-roledescription="area mark container"
                   id="g51">
                  <path
                     aria-label="AIAN Drug-Related Deaths Per 100K: 0; Density: 0.00470849705782; Jurisdiction: State"
                     role="graphics-symbol"
                     aria-roledescription="area mark"
                     d="M 0,171.586 1.5,160.547 3,149.602 4.5,138.898 6,128.579 l 1.5,-9.794 1.5,-9.136 1.5,-8.356 1.5,-7.469 1.5,-6.493 1.5,-5.447 1.5,-4.352 1.5,-3.228 1.5,-2.095 1.5,-0.973 1.5,0.12 1.5,1.169 1.5,2.162 1.5,3.084 1.5,3.931 1.5,4.694 1.5,5.368 1.5,5.951 1.5,6.442 1.5,6.839 1.5,7.143 1.5,7.355 1.5,7.474 1.5,7.506 1.5,7.451 1.5,7.312 1.5,7.096 1.5,6.804 1.5,6.447 1.5,6.028 1.5,5.559 1.5,5.047 1.5,4.506 1.5,3.944 1.5,3.375 1.5,2.808 1.5,2.258 1.5,1.733 1.5,1.245 1.5,0.8 1.5,0.409 1.5,0.073 1.5,-0.203 1.5,-0.417 1.5,-0.571 1.5,-0.666 1.5,-0.709 1.5,-0.703 1.5,-0.655 1.5,-0.575 1.5,-0.468 1.5,-0.344 1.5,-0.211 1.5,-0.074 1.5,0.058 1.5,0.18 1.5,0.289 1.5,0.383 1.5,0.458 1.5,0.518 1.5,0.561 1.5,0.592 1.5,0.613 1.5,0.628 1.5,0.642 1.5,0.659 1.5,0.683 1.5,0.717 1.5,0.766 1.5,0.827 1.5,0.906 1.5,0.999 1.5,1.105 1.5,1.224 1.5,1.349 1.5,1.48 1.5,1.611 1.5,1.738 1.5,1.858 1.5,1.966 1.5,2.059 1.5,2.136 1.5,2.195 1.5,2.234 1.5,2.254 1.5,2.256 1.5,2.24 1.5,2.21 1.5,2.165 1.5,2.11 1.5,2.044 1.5,1.972 1.5,1.894 1.5,1.813 1.5,1.729 1.5,1.644 1.5,1.558 1.5,1.472 1.5,1.386 1.5,1.302 1.5,1.218 1.5,1.137 1.5,1.057 1.5,0.98 1.5,0.906 1.5,0.837 1.5,0.773 1.5,0.714 1.5,0.662 1.5,0.616 1.5,0.578 1.5,0.547 1.5,0.524 1.5,0.508 1.5,0.498 1.5,0.495 1.5,0.497 1.5,0.502 1.5,0.509 1.5,0.519 1.5,0.528 1.5,0.536 1.5,0.541 1.5,0.543 1.5,0.54 1.5,0.534 1.5,0.522 1.5,0.504 1.5,0.482 1.5,0.457 1.5,0.426 1.5,0.394 1.5,0.36 1.5,0.325 1.5,0.292 1.5,0.261 1.5,0.231 1.5,0.207 1.5,0.186 1.5,0.171 1.5,0.161 1.5,0.156 1.5,0.156 1.5,0.161 1.5,0.17 1.5,0.181 1.5,0.196 1.5,0.212 1.5,0.227 1.5,0.244 1.5,0.259 1.5,0.271 1.5,0.282 1.5,0.291 1.5,0.294 1.5,0.296 1.5,0.294 1.5,0.288 1.5,0.278 1.5,0.266 1.5,0.25 1.5,0.231 1.5,0.211 1.5,0.188 1.5,0.165 1.5,0.141 1.5,0.117 1.5,0.095 1.5,0.073 1.5,0.054 1.5,0.038 1.5,0.024 1.5,0.015 1.5,0.009 1.5,0.006 1.5,0.008 1.5,0.013 1.5,0.021 1.5,0.03 1.5,0.042 1.5,0.056 1.5,0.068 1.5,0.082 1.5,0.094 1.5,0.106 1.5,0.114 1.5,0.121 1.5,0.126 1.5,0.129 1.5,0.128 1.5,0.126 1.5,0.122 1.5,0.116 1.5,0.109 1.5,0.1 1.5,0.092 V 300 H 298.5 297 295.5 294 292.5 291 289.5 288 286.5 285 283.5 282 280.5 279 277.5 276 274.5 273 271.5 270 268.5 267 265.5 264 262.5 261 259.5 258 256.5 255 253.5 252 250.5 249 247.5 246 244.5 243 241.5 240 238.5 237 235.5 234 232.5 231 229.5 228 226.5 225 223.5 222 220.5 219 217.5 216 214.5 213 211.5 210 208.5 207 205.5 204 202.5 201 199.5 198 196.5 195 193.5 192 190.5 189 187.5 186 184.5 183 181.5 180 178.5 177 175.5 174 172.5 171 169.5 168 166.5 165 163.5 162 160.5 159 157.5 156 154.5 153 151.5 150 148.5 147 145.5 144 142.5 141 139.5 138 136.5 135 133.5 132 130.5 129 127.5 126 124.5 123 121.5 120 118.5 117 115.5 114 112.5 111 109.5 108 106.5 105 103.5 102 100.5 99 97.5 96 94.5 93 91.5 90 88.5 87 85.5 84 82.5 81 79.5 78 76.5 75 73.5 72 70.5 69 67.5 66 64.5 63 61.5 60 58.5 57 55.5 54 52.5 51 49.5 48 46.5 45 43.5 42 40.5 39 37.5 36 34.5 33 31.5 30 28.5 27 25.5 24 22.5 21 19.5 18 16.5 15 13.5 12 10.5 9 7.5 6 4.5 3 1.5 0 Z"
                     fill="#ffae42"
                     opacity="0.5"
                     id="path51" />
                </g>
              </g>
              <path
                 class="foreground"
                 aria-hidden="true"
                 d=""
                 display="none"
                 id="path52" />
            </g>
            <g
               id="g56">
              <path
                 class="background"
                 aria-hidden="true"
                 d="M 0,0 H 300 V 300 H 0 Z"
                 id="path53" />
              <g
                 id="g55">
                <g
                   class="mark-area role-mark marks"
                   role="graphics-object"
                   aria-roledescription="area mark container"
                   id="g54">
                  <path
                     aria-label="AIAN Drug-Related Deaths Per 100K: 0; Density: 0.00685257249182; Jurisdiction: Tribal Authority"
                     role="graphics-symbol"
                     aria-roledescription="area mark"
                     d="M 0,113.112 1.5,98.977 3,85.257 4.5,72.156 6,59.87 7.5,48.587 9,38.477 10.5,29.69 12,22.352 13.5,16.558 15,12.372 16.5,9.825 18,8.918 l 1.5,0.698 1.5,2.241 1.5,3.694 1.5,5.032 1.5,6.239 1.5,7.297 1.5,8.199 1.5,8.937 1.5,9.512 1.5,9.925 1.5,10.186 1.5,10.303 1.5,10.286 1.5,10.153 1.5,9.915 1.5,9.592 1.5,9.194 1.5,8.741 1.5,8.245 1.5,7.72 1.5,7.176 1.5,6.627 1.5,6.078 1.5,5.541 1.5,5.018 1.5,4.516 1.5,4.041 1.5,3.592 1.5,3.175 1.5,2.79 1.5,2.437 1.5,2.12 1.5,1.837 1.5,1.589 1.5,1.376 1.5,1.196 1.5,1.05 1.5,0.935 1.5,0.852 1.5,0.796 1.5,0.766 1.5,0.759 1.5,0.771 1.5,0.8 1.5,0.842 1.5,0.893 1.5,0.951 1.5,1.012 1.5,1.073 1.5,1.131 1.5,1.185 1.5,1.232 1.5,1.271 1.5,1.302 1.5,1.321 1.5,1.333 1.5,1.333 1.5,1.325 1.5,1.308 1.5,1.282 1.5,1.252 1.5,1.215 1.5,1.176 1.5,1.134 1.5,1.091 1.5,1.051 1.5,1.013 1.5,0.977 1.5,0.949 1.5,0.924 1.5,0.905 1.5,0.894 1.5,0.886 1.5,0.886 1.5,0.888 1.5,0.895 1.5,0.902 1.5,0.911 1.5,0.919 1.5,0.923 1.5,0.925 1.5,0.923 1.5,0.914 1.5,0.901 1.5,0.883 1.5,0.858 1.5,0.83 1.5,0.799 1.5,0.765 1.5,0.731 1.5,0.697 1.5,0.667 1.5,0.639 1.5,0.617 1.5,0.599 1.5,0.589 1.5,0.583 1.5,0.584 1.5,0.591 1.5,0.601 1.5,0.614 1.5,0.63 1.5,0.646 1.5,0.661 1.5,0.673 1.5,0.682 1.5,0.687 1.5,0.686 1.5,0.679 1.5,0.667 1.5,0.648 1.5,0.625 1.5,0.596 1.5,0.563 1.5,0.528 1.5,0.489 1.5,0.45 1.5,0.411 1.5,0.371 1.5,0.334 1.5,0.298 1.5,0.265 1.5,0.234 1.5,0.208 1.5,0.185 1.5,0.165 1.5,0.148 1.5,0.135 1.5,0.124 1.5,0.117 1.5,0.111 1.5,0.107 1.5,0.106 1.5,0.105 1.5,0.105 1.5,0.106 1.5,0.107 1.5,0.107 1.5,0.107 1.5,0.107 1.5,0.106 1.5,0.105 1.5,0.101 1.5,0.098 1.5,0.094 1.5,0.089 1.5,0.083 1.5,0.078 1.5,0.071 1.5,0.064 1.5,0.058 1.5,0.051 1.5,0.045 1.5,0.039 1.5,0.034 1.5,0.029 1.5,0.024 1.5,0.02 1.5,0.017 1.5,0.013 1.5,0.011 1.5,0.009 1.5,0.007 1.5,0.005 1.5,0.004 1.5,0.003 1.5,0.003 1.5,10e-4 1.5,0.002 1.5,10e-4 h 1.5 l 1.5,0.001 h 1.5 1.5 l 1.5,10e-4 h 1.5 1.5 1.5 1.5 1.5 1.5 1.5 1.5 1.5 1.5 1.5 1.5 1.5 v 0 H 298.5 297 295.5 294 292.5 291 289.5 288 286.5 285 283.5 282 280.5 279 277.5 276 274.5 273 271.5 270 268.5 267 265.5 264 262.5 261 259.5 258 256.5 255 253.5 252 250.5 249 247.5 246 244.5 243 241.5 240 238.5 237 235.5 234 232.5 231 229.5 228 226.5 225 223.5 222 220.5 219 217.5 216 214.5 213 211.5 210 208.5 207 205.5 204 202.5 201 199.5 198 196.5 195 193.5 192 190.5 189 187.5 186 184.5 183 181.5 180 178.5 177 175.5 174 172.5 171 169.5 168 166.5 165 163.5 162 160.5 159 157.5 156 154.5 153 151.5 150 148.5 147 145.5 144 142.5 141 139.5 138 136.5 135 133.5 132 130.5 129 127.5 126 124.5 123 121.5 120 118.5 117 115.5 114 112.5 111 109.5 108 106.5 105 103.5 102 100.5 99 97.5 96 94.5 93 91.5 90 88.5 87 85.5 84 82.5 81 79.5 78 76.5 75 73.5 72 70.5 69 67.5 66 64.5 63 61.5 60 58.5 57 55.5 54 52.5 51 49.5 48 46.5 45 43.5 42 40.5 39 37.5 36 34.5 33 31.5 30 28.5 27 25.5 24 22.5 21 19.5 18 16.5 15 13.5 12 10.5 9 7.5 6 4.5 3 1.5 0 Z"
                     fill="#a478d1"
                     opacity="0.5"
                     id="path54" />
                </g>
              </g>
              <path
                 class="foreground"
                 aria-hidden="true"
                 d=""
                 display="none"
                 id="path55" />
            </g>
          </g>
          <g
             class="mark-group role-legend"
             role="graphics-symbol"
             aria-roledescription="legend"
             aria-label="Symbol legend titled 'Jurisdiction' for fill color with 2 values: State, Tribal Authority"
             id="g75">
            <g
               transform="translate(318)"
               id="g74">
              <path
                 class="background"
                 aria-hidden="true"
                 d="M 0,0 H 83 V 40 H 0 Z"
                 pointer-events="none"
                 id="path57" />
              <g
                 id="g73">
                <g
                   class="mark-group role-legend-entry"
                   id="g71">
                  <g
                     transform="translate(0,16)"
                     id="g70">
                    <path
                       class="background"
                       aria-hidden="true"
                       d="M 0,0 Z"
                       pointer-events="none"
                       id="path58" />
                    <g
                       id="g69">
                      <g
                         class="mark-group role-scope"
                         role="graphics-object"
                         aria-roledescription="group mark container"
                         id="g68">
                        <g
                           id="g63">
                          <path
                             class="background"
                             aria-hidden="true"
                             d="M 0,0 H 82.323242 V 11 H 0 Z"
                             pointer-events="none"
                             opacity="1"
                             id="path59" />
                          <g
                             id="g62">
                            <g
                               class="mark-symbol role-legend-symbol"
                               pointer-events="none"
                               id="g60">
                              <path
                                 transform="translate(6,6)"
                                 d="M 5,0 A 5,5 0 1 1 -5,0 5,5 0 1 1 5,0"
                                 fill="#ffae42"
                                 stroke-width="1.5"
                                 opacity="0.5"
                                 id="path60" />
                            </g>
                            <g
                               class="mark-text role-legend-label"
                               pointer-events="none"
                               id="g61">
                              <text
                                 text-anchor="start"
                                 transform="translate(16,9)"
                                 font-family="sans-serif"
                                 font-size="10px"
                                 fill="#000000"
                                 opacity="1"
                                 id="text60">State</text>
                            </g>
                          </g>
                          <path
                             class="foreground"
                             aria-hidden="true"
                             d=""
                             pointer-events="none"
                             display="none"
                             id="path62" />
                        </g>
                        <g
                           transform="translate(0,13)"
                           id="g67">
                          <path
                             class="background"
                             aria-hidden="true"
                             d="M 0,0 H 82.323242 V 11 H 0 Z"
                             pointer-events="none"
                             opacity="1"
                             id="path63" />
                          <g
                             id="g66">
                            <g
                               class="mark-symbol role-legend-symbol"
                               pointer-events="none"
                               id="g64">
                              <path
                                 transform="translate(6,6)"
                                 d="M 5,0 A 5,5 0 1 1 -5,0 5,5 0 1 1 5,0"
                                 fill="#a478d1"
                                 stroke-width="1.5"
                                 opacity="0.5"
                                 id="path64" />
                            </g>
                            <g
                               class="mark-text role-legend-label"
                               pointer-events="none"
                               id="g65">
                              <text
                                 text-anchor="start"
                                 transform="translate(16,9)"
                                 font-family="sans-serif"
                                 font-size="10px"
                                 fill="#000000"
                                 opacity="1"
                                 id="text64">Tribal Authority</text>
                            </g>
                          </g>
                          <path
                             class="foreground"
                             aria-hidden="true"
                             d=""
                             pointer-events="none"
                             display="none"
                             id="path66" />
                        </g>
                      </g>
                    </g>
                    <path
                       class="foreground"
                       aria-hidden="true"
                       d=""
                       pointer-events="none"
                       display="none"
                       id="path69" />
                  </g>
                </g>
                <g
                   class="mark-text role-legend-title"
                   pointer-events="none"
                   id="g72">
                  <text
                     text-anchor="start"
                     transform="translate(0,9)"
                     font-family="sans-serif"
                     font-size="11px"
                     font-weight="bold"
                     fill="#000000"
                     opacity="1"
                     id="text71">Jurisdiction</text>
                </g>
              </g>
              <path
                 class="foreground"
                 aria-hidden="true"
                 d=""
                 pointer-events="none"
                 display="none"
                 id="path73" />
            </g>
          </g>
          <g
             class="mark-group role-title"
             id="g79"
             style="display:inline">
            <g
               transform="translate(150,-22)"
               id="g78">
              <path
                 class="background"
                 aria-hidden="true"
                 d="M 0,0 Z"
                 pointer-events="none"
                 id="path75" />
              <g
                 id="g77">
                <g
                   class="mark-text role-title-text"
                   role="graphics-symbol"
                   aria-roledescription="title"
                   aria-label="Title text 'More States where Tribes Lack Criminal Jurisdiction Have Drug-Related Death Rates Above 100/100,000'"
                   pointer-events="none"
                   id="g76" />
                <text
                   text-anchor="middle"
                   font-family="sans-serif"
                   font-size="13px"
                   font-weight="bold"
                   fill="#000000"
                   opacity="1"
                   id="text75"
                   style="font-style:normal;font-variant:normal;font-weight:bold;font-stretch:normal;font-size:13px;font-family:sans-serif;-inkscape-font-specification:'sans-serif, Bold';font-variant-ligatures:normal;font-variant-caps:normal;font-variant-numeric:normal;font-variant-east-asian:normal;text-anchor:middle;display:inline;opacity:1;fill:#000000"
                   y="-4"
                   x="20.855368"><tspan
                     sodipodi:role="line"
                     id="tspan9"
                     x="20.855368"
                     y="-4">A Higher Proportion of States that have Criminal Jurisdiction</tspan><tspan
                     sodipodi:role="line"
                     id="tspan10"
                     x="20.855368"
                     y="12.25">On Reservations Have Drug-Related Death Rates Above 100/100K</tspan></text>
              </g>
              <path
                 class="foreground"
                 aria-hidden="true"
                 d=""
                 pointer-events="none"
                 display="none"
                 id="path77" />
            </g>
          </g>
        </g>
        <path
           class="foreground"
           aria-hidden="true"
           d=""
           display="none"
           id="path80" />
      </g>
    </g>
  </g>
</svg>
