<svg xmlns="http://www.w3.org/2000/svg" xmlns:xlink="http://www.w3.org/1999/xlink" version="1.1" class="marks" width="541" height="327" viewBox="0 0 541 327"><rect width="541" height="327" fill="white"/><g fill="none" stroke-miterlimit="10" transform="translate(76,22)"><g class="mark-group role-frame root" role="graphics-object" aria-roledescription="group mark container"><g transform="translate(0,0)"><path class="background" aria-hidden="true" d="M0,0h300v300h-300Z"/><g><g class="mark-shape role-mark layer_0_marks" role="graphics-symbol" aria-roledescription="shape mark container"><path transform="translate(0,0)" d="M77.968,28.618L82.857,26.997L86.978,32.882L92.23,32.906L95.115,33.07L100.745,39.739L101.418,51.348L100.375,57.072L99.868,60.951L102.871,63.765L114.409,69.9L125.951,68.186L130.426,66.653L139.759,68.344L141.809,70.244L148.837,73.657L150.156,76.922L154.086,75.523L157.998,77.361L167.382,75.182L172.351,78.561L181.264,79.485L189.163,77.224L193.657,77.259L200.181,77.908L203.944,75.527L208.423,77.022L218.18,78.758L223.506,76.824L255.063,84.382L255.635,84.517L267.64,87.396L271.524,88.344L289.492,92.575L291.859,99.806L298.989,106.894L300,113.87L296.046,117.534L289.451,127.609L284.385,135.613L278.203,145.784L272.432,149.086L266.397,158.378L263.866,159.754L262.074,168.19L265.385,169.954L271.118,177.484L267.575,181.684L268.236,184.824L265.475,189.382L263.647,190.872L261.986,198.256L261.986,198.256L244.519,275.916L204.876,266.9L166.797,257.759L165.587,257.456L144.091,251.908L114.521,244.211L95.542,238.908L67.46,230.515L36.012,221.658L26.298,218.886L16.183,216.147L3.22,212.052L0,205.976L0.444,195.241L5.79,180.001L3.259,170.643L7.781,166.024L15.316,152.834L15.145,150.893L21.636,147.25L23.514,150.721L23.537,150.649L23.743,150.393L23.765,150.32L23.78,150.271L23.715,150.065L23.665,149.811L23.117,146.587L18.129,149.098L25.436,139.006L30.315,134.281L27.036,135.856L30.677,128.099L33.149,122.907L35.543,124.194L35.595,124.024L33.637,121.304L37.761,109.854L45.123,92.692L46.428,86.757L52.094,76.327L52.094,76.327L54.869,70.872L56.801,62.862L63.272,46.405L63.324,43.383L68.021,31.529L68.438,24.084L71.895,27.635L75.35,26.33Z" fill="lightgray" stroke="white" stroke-width="0.5"/></g><g class="mark-shape role-mark layer_1_marks" role="graphics-object" aria-roledescription="shape mark container"><path aria-label="Jurisdiction: Tribal Authority" role="graphics-symbol" aria-roledescription="geoshape" transform="translate(0,0)" d="M255.063,84.382L255.635,84.517L254.353,90.989L247.787,97.748L245.425,107.713L242.408,109.129L235.045,107.289L234.234,110.659L225.472,109.008L225.086,116.129L228.671,116.998L227.264,126.374L206.507,121.313L208.082,117.451L213,97.656L209.667,96.826L210.647,92.901L204.573,91.352L208.423,77.022L218.18,78.758L223.506,76.824Z" fill="#a478d1" stroke="white" stroke-width="0.5"/><path aria-label="Jurisdiction: Tribal Authority" role="graphics-symbol" aria-roledescription="geoshape" transform="translate(0,0)" d="M268.706,131.984L259.161,129.874L258.244,133.846L251.257,132.277L249.868,128.78L244.081,130.464L240.326,127.157L235.784,130.268L227.264,126.374L228.671,116.998L225.086,116.129L225.472,109.008L234.234,110.659L235.045,107.289L242.408,109.129L245.425,107.713L247.787,97.748L254.353,90.989L261.466,92.654L258.371,100.211L259.855,108.968L259.233,117.42L262.035,120.067L262.857,126.568L269.594,128.083Z" fill="#a478d1" stroke="white" stroke-width="0.5"/><path aria-label="Jurisdiction: State" role="graphics-symbol" aria-roledescription="geoshape" transform="translate(0,0)" d="M187.088,112.943L164.489,106.997L164.433,106.275L166.794,103.86L164.741,98.109L169.249,88.936L174.445,86.876L171.76,80.34L167.382,75.182L172.351,78.561L181.264,79.485L189.163,77.224L182.399,102.486L186.295,103.567L185.282,107.514L189.299,108.621Z" fill="#FFAE42" stroke="white" stroke-width="0.5"/><path aria-label="Jurisdiction: State" role="graphics-symbol" aria-roledescription="geoshape" transform="translate(0,0)" d="M164.433,106.275L157.18,104.328L157.868,102.205L153.968,97.889L149.284,95.608L157.409,87.336L159.217,83.787L157.998,77.361L167.382,75.182L171.76,80.34L174.445,86.876L169.249,88.936L164.741,98.109L166.794,103.86Z" fill="#FFAE42" stroke="white" stroke-width="0.5"/><path aria-label="Jurisdiction: State" role="graphics-symbol" aria-roledescription="geoshape" transform="translate(0,0)" d="M141.809,70.244L139.595,78.316L138.453,78.002L135.196,89.859L128.306,88.01L129.739,82.394L126.877,77.634L124.866,74.263L125.951,68.186L130.426,66.653L139.759,68.344Z" fill="#FFAE42" stroke="white" stroke-width="0.5"/><path aria-label="Jurisdiction: State" role="graphics-symbol" aria-roledescription="geoshape" transform="translate(0,0)" d="M157.998,77.361L159.217,83.787L157.409,87.336L149.284,95.608L153.968,97.889L157.868,102.205L157.18,104.328L164.433,106.275L164.489,106.997L163.199,116.584L165.454,119.298L120.908,107.086L122.386,104.447L121.773,98.177L127.723,95.913L126.059,89.882L128.306,88.01L135.196,89.859L138.453,78.002L139.595,78.316L141.809,70.244L148.837,73.657L150.156,76.922L154.086,75.523Z" fill="#FFAE42" stroke="white" stroke-width="0.5"/><path aria-label="Jurisdiction: Tribal Authority" role="graphics-symbol" aria-roledescription="geoshape" transform="translate(0,0)" d="M126.877,77.634L129.739,82.394L128.306,88.01L126.059,89.882L127.723,95.913L121.773,98.177L122.386,104.447L101.169,98.635L97.371,94.967L96.611,90.691L91.742,83.911L93.858,77.461L91.512,77.44L91.811,74.707L95.766,75.141L97.094,70.548L100.876,70.27Z" fill="#a478d1" stroke="white" stroke-width="0.5"/><path aria-label="Jurisdiction: State" role="graphics-symbol" aria-roledescription="geoshape" transform="translate(0,0)" d="M91.811,74.707L91.512,77.44L87.053,75.746L85.073,77.435L85.031,82.671L82.218,83.801L61.316,77.55L59.375,76.967L61.272,70.664L71.53,73.732L74.223,63.841L84.799,66.966Z" fill="#FFAE42" stroke="white" stroke-width="0.5"/><path aria-label="Jurisdiction: Tribal Authority" role="graphics-symbol" aria-roledescription="geoshape" transform="translate(0,0)" d="M91.512,77.44L93.858,77.461L91.742,83.911L96.611,90.691L97.371,94.967L101.169,98.635L122.386,104.447L120.908,107.086L117.853,113.155L104.823,108.998L102.071,105.083L95.558,103.462L87.088,99.123L79.021,101.976L75.49,97.826L77.969,95.331L76.1,92.353L81.455,89.805L82.218,83.801L85.031,82.671L85.073,77.435L87.053,75.746Z" fill="#a478d1" stroke="white" stroke-width="0.5"/><path aria-label="Jurisdiction: State" role="graphics-symbol" aria-roledescription="geoshape" transform="translate(0,0)" d="M82.218,83.801L81.455,89.805L76.1,92.353L77.969,95.331L75.49,97.826L74.868,99.096L60.289,94.723L56.741,92.787L60.879,79.006L61.316,77.55Z" fill="#FFAE42" stroke="white" stroke-width="0.5"/><path aria-label="Jurisdiction: State" role="graphics-symbol" aria-roledescription="geoshape" transform="translate(0,0)" d="M60.879,79.006L56.741,92.787L60.289,94.723L56.736,107.87L52.708,106.637L51.838,109.951L48.388,109.708L48.817,112.884L37.761,109.854L45.123,92.692L46.428,86.757L52.094,76.327L52.094,76.327Z" fill="#FFAE42" stroke="white" stroke-width="0.5"/><path aria-label="Jurisdiction: Tribal Authority" role="graphics-symbol" aria-roledescription="geoshape" transform="translate(0,0)" d="M165.454,119.298L161.787,130.914L147.608,127.21L146.56,131.13L141.325,129.752L140.271,133.67L136.317,132.603L112.531,125.99L117.853,113.155L120.908,107.086Z" fill="#a478d1" stroke="white" stroke-width="0.5"/><path aria-label="Jurisdiction: Tribal Authority" role="graphics-symbol" aria-roledescription="geoshape" transform="translate(0,0)" d="M117.853,113.155L112.531,125.99L112.461,132.528L95.2,127.935L92.768,128.984L86.872,126.769L82.897,122.694L78.371,121.41L75.833,124.952L67.371,122.478L67.908,118.511L67.341,113.61L70.049,108.248L69.095,105.535L76.421,102.747L74.868,99.096L75.49,97.826L79.021,101.976L87.088,99.123L95.558,103.462L102.071,105.083L104.823,108.998Z" fill="#a478d1" stroke="white" stroke-width="0.5"/><path aria-label="Jurisdiction: State" role="graphics-symbol" aria-roledescription="geoshape" transform="translate(0,0)" d="M262.074,168.19L265.385,169.954L271.118,177.484L267.575,181.684L268.236,184.824L265.475,189.382L263.647,190.872L261.986,198.256L261.986,198.256L244.519,275.916L204.876,266.9L207.337,253.872L214.345,224.434L213.867,224.32L223.227,184.508L226.205,172.533L228.452,162.581L231.31,162.557L239.046,156.019L251.486,158.842L254.279,162.271L253.374,166.202Z" fill="#FFAE42" stroke="white" stroke-width="0.5"/><path aria-label="Jurisdiction: Tribal Authority" role="graphics-symbol" aria-roledescription="geoshape" transform="translate(0,0)" d="M226.205,172.533L223.227,184.508L213.867,224.32L214.345,224.434L207.337,253.872L204.876,266.9L166.797,257.759L165.587,257.456L174.177,222.706L154.832,218.183L160.079,198.286L161.273,198.567L166.364,178.751L167.426,174.617L171.539,175.723L174.594,163.766L178.353,164.724L206.124,171.574L207.108,167.555Z" fill="#a478d1" stroke="white" stroke-width="0.5"/><path aria-label="Jurisdiction: State" role="graphics-symbol" aria-roledescription="geoshape" transform="translate(0,0)" d="M91.156,166.721L92.97,168.842L93.92,176.317L91.365,177.712L88.257,184.234L81.285,182.263L80.348,185.566L76.564,184.49L70.62,185.594L60.73,190.553L48.548,188.272L45.459,189.591L38.033,187.713L29.785,183.417L30.392,181.394L30.392,181.394L27.403,180.203L29.97,170.827L35.112,167.805L37.325,160.001L35.309,159.476L37.696,151.54L35.209,146.677L36.487,142.445L25.436,139.006L30.315,134.281L27.036,135.856L30.677,128.099L38.371,130.331L42.592,127.681L46.656,128.903L55.945,139.805L62.808,141.881L60.525,153.124L72.567,156.259L71.149,161.166Z" fill="#FFAE42" stroke="white" stroke-width="0.5"/><path aria-label="Jurisdiction: State" role="graphics-symbol" aria-roledescription="geoshape" transform="translate(0,0)" d="M119.463,165.981L108.025,205.529L123.606,209.824L114.521,244.211L95.542,238.908L67.46,230.515L80.348,185.566L81.285,182.263L88.257,184.234L91.365,177.712L93.92,176.317L92.97,168.842L91.156,166.721L92.087,162.072L97.626,159.936Z" fill="#FFAE42" stroke="white" stroke-width="0.5"/><path aria-label="Jurisdiction: State" role="graphics-symbol" aria-roledescription="geoshape" transform="translate(0,0)" d="M27.403,180.203L23.419,179.744L19.722,183.011L15.017,182.351L17.125,172.486L15.07,168.267L7.781,166.024L15.316,152.834L15.145,150.893L21.636,147.25L23.514,150.721L23.537,150.649L23.743,150.393L23.765,150.32L23.78,150.271L23.715,150.065L23.665,149.811L23.117,146.587L18.129,149.098L25.436,139.006L36.487,142.445L35.209,146.677L37.696,151.54L35.309,159.476L37.325,160.001L35.112,167.805L29.97,170.827Z" fill="#FFAE42" stroke="white" stroke-width="0.5"/><path aria-label="Jurisdiction: State" role="graphics-symbol" aria-roledescription="geoshape" transform="translate(0,0)" d="M30.392,181.394L29.785,183.417L38.033,187.713L45.459,189.591L36.012,221.658L26.298,218.886L16.183,216.147L16.991,209.155L20.539,205.57L19.192,199.712L14.397,197.568L16.876,191.536L20.838,192.55L24.542,187.128Z" fill="#FFAE42" stroke="white" stroke-width="0.5"/></g><g class="mark-group role-legend" role="graphics-symbol" aria-roledescription="legend" aria-label="Symbol legend titled 'Jurisdiction' for fill color with 3 values: State, Tribal Authority, No Recognized Tribal Lands"><g transform="translate(318,0)"><path class="background" aria-hidden="true" d="M0,0h142v61h-142Z" pointer-events="none"/><g><g class="mark-group role-legend-entry"><g transform="translate(0,16)"><path class="background" aria-hidden="true" d="M0,0h0v0h0Z" pointer-events="none"/><g><g class="mark-group role-scope" role="graphics-object" aria-roledescription="group mark container"><g transform="translate(0,0)"><path class="background" aria-hidden="true" d="M0,0h141.6298828125v12.5h-141.6298828125Z" pointer-events="none" opacity="1"/><g><g class="mark-symbol role-legend-symbol" pointer-events="none"><path transform="translate(6,6)" d="M5,0A5,5,0,1,1,-5,0A5,5,0,1,1,5,0" fill="#FFAE42" stroke="white" stroke-width="1.5" opacity="1"/></g><g class="mark-text role-legend-label" pointer-events="none"><text text-anchor="start" transform="translate(16,9)" font-family="sans-serif" font-size="10px" fill="#000" opacity="1">State</text></g></g><path class="foreground" aria-hidden="true" d="" pointer-events="none" display="none"/></g><g transform="translate(0,16)"><path class="background" aria-hidden="true" d="M0,0h141.6298828125v12.5h-141.6298828125Z" pointer-events="none" opacity="1"/><g><g class="mark-symbol role-legend-symbol" pointer-events="none"><path transform="translate(6,6)" d="M5,0A5,5,0,1,1,-5,0A5,5,0,1,1,5,0" fill="#a478d1" stroke="white" stroke-width="1.5" opacity="1"/></g><g class="mark-text role-legend-label" pointer-events="none"><text text-anchor="start" transform="translate(16,9)" font-family="sans-serif" font-size="10px" fill="#000" opacity="1">Tribal Authority</text></g></g><path class="foreground" aria-hidden="true" d="" pointer-events="none" display="none"/></g><g transform="translate(0,32)"><path class="background" aria-hidden="true" d="M0,0h141.6298828125v12.5h-141.6298828125Z" pointer-events="none" opacity="1"/><g><g class="mark-symbol role-legend-symbol" pointer-events="none"><path transform="translate(6,6)" d="M5,0A5,5,0,1,1,-5,0A5,5,0,1,1,5,0" fill="lightgrey" stroke="white" stroke-width="1.5" opacity="1"/></g><g class="mark-text role-legend-label" pointer-events="none"><text text-anchor="start" transform="translate(16,9)" font-family="sans-serif" font-size="10px" fill="#000" opacity="1">No Recognized Tribal Lands</text></g></g><path class="foreground" aria-hidden="true" d="" pointer-events="none" display="none"/></g></g></g><path class="foreground" aria-hidden="true" d="" pointer-events="none" display="none"/></g></g><g class="mark-text role-legend-title" pointer-events="none"><text text-anchor="start" transform="translate(0,9)" font-family="sans-serif" font-size="11px" font-weight="bold" fill="#000" opacity="1">Jurisdiction</text></g></g><path class="foreground" aria-hidden="true" d="" pointer-events="none" display="none"/></g></g><g class="mark-group role-title"><g transform="translate(150,-17)"><path class="background" aria-hidden="true" d="M0,0h0v0h0Z" pointer-events="none"/><g><g class="mark-text role-title-text" role="graphics-symbol" aria-roledescription="title" aria-label="Title text 'Oregon: In Some Counties Tribal Authorities Have Criminal Jurisdiction'" pointer-events="none"><text text-anchor="middle" transform="translate(0,10)" font-family="sans-serif" font-size="13px" font-weight="bold" fill="#000" opacity="1">Oregon: In Some Counties Tribal Authorities Have Criminal Jurisdiction</text></g></g><path class="foreground" aria-hidden="true" d="" pointer-events="none" display="none"/></g></g></g><path class="foreground" aria-hidden="true" d="" display="none"/></g></g></g></svg>