<svg xmlns="http://www.w3.org/2000/svg" xmlns:xlink="http://www.w3.org/1999/xlink" version="1.1" class="marks" width="652" height="364" viewBox="0 0 652 364"><rect width="652" height="364" fill="white"/><g fill="none" stroke-miterlimit="10" transform="translate(176,27)"><g class="mark-group role-frame root" role="graphics-object" aria-roledescription="group mark container"><g transform="translate(0,0)"><path class="background" aria-hidden="true" d="M0.5,0.5h300v300h-300Z" stroke="#ddd"/><g><g class="mark-group role-axis" role="graphics-symbol" aria-roledescription="axis" aria-label="X-axis titled 'AIAN Drug-Related Deaths Per 100K' for a linear scale with values from 0 to 400"><g transform="translate(0.5,300.5)"><path class="background" aria-hidden="true" d="M0,0h0v0h0Z" pointer-events="none"/><g><g class="mark-rule role-axis-tick" pointer-events="none"><line transform="translate(0,0)" x2="0" y2="5" stroke="#888" stroke-width="1" opacity="1"/><line transform="translate(38,0)" x2="0" y2="5" stroke="#888" stroke-width="1" opacity="1"/><line transform="translate(75,0)" x2="0" y2="5" stroke="#888" stroke-width="1" opacity="1"/><line transform="translate(113,0)" x2="0" y2="5" stroke="#888" stroke-width="1" opacity="1"/><line transform="translate(150,0)" x2="0" y2="5" stroke="#888" stroke-width="1" opacity="1"/><line transform="translate(188,0)" x2="0" y2="5" stroke="#888" stroke-width="1" opacity="1"/><line transform="translate(225,0)" x2="0" y2="5" stroke="#888" stroke-width="1" opacity="1"/><line transform="translate(263,0)" x2="0" y2="5" stroke="#888" stroke-width="1" opacity="1"/><line transform="translate(300,0)" x2="0" y2="5" stroke="#888" stroke-width="1" opacity="1"/></g><g class="mark-text role-axis-label" pointer-events="none"><text text-anchor="start" transform="translate(0,15)" font-family="sans-serif" font-size="10px" fill="#000" opacity="1">0</text><text text-anchor="middle" transform="translate(37.5,15)" font-family="sans-serif" font-size="10px" fill="#000" opacity="1">50</text><text text-anchor="middle" transform="translate(75,15)" font-family="sans-serif" font-size="10px" fill="#000" opacity="1">100</text><text text-anchor="middle" transform="translate(112.5,15)" font-family="sans-serif" font-size="10px" fill="#000" opacity="1">150</text><text text-anchor="middle" transform="translate(150,15)" font-family="sans-serif" font-size="10px" fill="#000" opacity="1">200</text><text text-anchor="middle" transform="translate(187.5,15)" font-family="sans-serif" font-size="10px" fill="#000" opacity="1">250</text><text text-anchor="middle" transform="translate(225,15)" font-family="sans-serif" font-size="10px" fill="#000" opacity="1">300</text><text text-anchor="middle" transform="translate(262.5,15)" font-family="sans-serif" font-size="10px" fill="#000" opacity="1">350</text><text text-anchor="end" transform="translate(300,15)" font-family="sans-serif" font-size="10px" fill="#000" opacity="1">400</text></g><g class="mark-rule role-axis-domain" pointer-events="none"><line transform="translate(0,0)" x2="300" y2="0" stroke="#888" stroke-width="1" opacity="1"/></g><g class="mark-text role-axis-title" pointer-events="none"><text text-anchor="middle" transform="translate(150,30)" font-family="sans-serif" font-size="11px" font-weight="bold" fill="#000" opacity="1">AIAN Drug-Related Deaths Per 100K</text></g></g><path class="foreground" aria-hidden="true" d="" pointer-events="none" display="none"/></g></g><g class="mark-group role-axis" role="graphics-symbol" aria-roledescription="axis" aria-label="Y-axis titled 'Density' for a linear scale with values from 0.000 to 0.011"><g transform="translate(0.5,0.5)"><path class="background" aria-hidden="true" d="M0,0h0v0h0Z" pointer-events="none"/><g><g class="mark-rule role-axis-tick" pointer-events="none"><line transform="translate(0,300)" x2="-5" y2="0" stroke="#888" stroke-width="1" opacity="1"/><line transform="translate(0,273)" x2="-5" y2="0" stroke="#888" stroke-width="1" opacity="1"/><line transform="translate(0,245)" x2="-5" y2="0" stroke="#888" stroke-width="1" opacity="1"/><line transform="translate(0,218)" x2="-5" y2="0" stroke="#888" stroke-width="1" opacity="1"/><line transform="translate(0,191)" x2="-5" y2="0" stroke="#888" stroke-width="1" opacity="1"/><line transform="translate(0,164)" x2="-5" y2="0" stroke="#888" stroke-width="1" opacity="1"/><line transform="translate(0,136)" x2="-5" y2="0" stroke="#888" stroke-width="1" opacity="1"/><line transform="translate(0,109)" x2="-5" y2="0" stroke="#888" stroke-width="1" opacity="1"/><line transform="translate(0,82)" x2="-5" y2="0" stroke="#888" stroke-width="1" opacity="1"/><line transform="translate(0,55)" x2="-5" y2="0" stroke="#888" stroke-width="1" opacity="1"/><line transform="translate(0,27)" x2="-5" y2="0" stroke="#888" stroke-width="1" opacity="1"/><line transform="translate(0,0)" x2="-5" y2="0" stroke="#888" stroke-width="1" opacity="1"/></g><g class="mark-text role-axis-label" pointer-events="none"><text text-anchor="end" transform="translate(-7,303)" font-family="sans-serif" font-size="10px" fill="#000" opacity="1">0.000</text><text text-anchor="end" transform="translate(-7,275.7272727272727)" font-family="sans-serif" font-size="10px" fill="#000" opacity="1">0.001</text><text text-anchor="end" transform="translate(-7,248.45454545454544)" font-family="sans-serif" font-size="10px" fill="#000" opacity="1">0.002</text><text text-anchor="end" transform="translate(-7,221.1818181818182)" font-family="sans-serif" font-size="10px" fill="#000" opacity="1">0.003</text><text text-anchor="end" transform="translate(-7,193.9090909090909)" font-family="sans-serif" font-size="10px" fill="#000" opacity="1">0.004</text><text text-anchor="end" transform="translate(-7,166.63636363636363)" font-family="sans-serif" font-size="10px" fill="#000" opacity="1">0.005</text><text text-anchor="end" transform="translate(-7,139.36363636363635)" font-family="sans-serif" font-size="10px" fill="#000" opacity="1">0.006</text><text text-anchor="end" transform="translate(-7,112.09090909090907)" font-family="sans-serif" font-size="10px" fill="#000" opacity="1">0.007</text><text text-anchor="end" transform="translate(-7,84.81818181818181)" font-family="sans-serif" font-size="10px" fill="#000" opacity="1">0.008</text><text text-anchor="end" transform="translate(-7,57.54545454545456)" font-family="sans-serif" font-size="10px" fill="#000" opacity="1">0.009</text><text text-anchor="end" transform="translate(-7,30.27272727272725)" font-family="sans-serif" font-size="10px" fill="#000" opacity="1">0.010</text><text text-anchor="end" transform="translate(-7,3)" font-family="sans-serif" font-size="10px" fill="#000" opacity="1">0.011</text></g><g class="mark-rule role-axis-domain" pointer-events="none"><line transform="translate(0,300)" x2="0" y2="-300" stroke="#888" stroke-width="1" opacity="1"/></g><g class="mark-text role-axis-title" pointer-events="none"><text text-anchor="middle" transform="translate(-36.0244140625,150) rotate(-90) translate(0,-2)" font-family="sans-serif" font-size="11px" font-weight="bold" fill="#000" opacity="1">Density</text></g></g><path class="foreground" aria-hidden="true" d="" pointer-events="none" display="none"/></g></g><g class="mark-group role-scope pathgroup" role="graphics-object" aria-roledescription="group mark container"><g transform="translate(0,0)"><path class="background" aria-hidden="true" d="M0,0h300v300h-300Z"/><g><g class="mark-area role-mark marks" role="graphics-object" aria-roledescription="area mark container"><path aria-label="AIAN Drug-Related Deaths Per 100K: 0; Density: 0.00470849705782; Jurisdiction: State" role="graphics-symbol" aria-roledescription="area mark" d="M0,171.586L1.5,160.547L3,149.602L4.5,138.898L6,128.579L7.5,118.785L9,109.649L10.5,101.293L12,93.824L13.5,87.331L15,81.884L16.5,77.532L18,74.304L19.5,72.209L21,71.236L22.5,71.356L24,72.525L25.5,74.687L27,77.771L28.5,81.702L30,86.396L31.5,91.764L33,97.715L34.5,104.157L36,110.996L37.5,118.139L39,125.494L40.5,132.968L42,140.474L43.5,147.925L45,155.237L46.5,162.333L48,169.137L49.5,175.584L51,181.612L52.5,187.171L54,192.218L55.5,196.724L57,200.668L58.5,204.043L60,206.851L61.5,209.109L63,210.842L64.5,212.087L66,212.887L67.5,213.296L69,213.369L70.5,213.166L72,212.749L73.5,212.178L75,211.512L76.5,210.803L78,210.1L79.5,209.445L81,208.87L82.5,208.402L84,208.058L85.5,207.847L87,207.773L88.5,207.831L90,208.011L91.5,208.3L93,208.683L94.5,209.141L96,209.659L97.5,210.22L99,210.812L100.5,211.425L102,212.053L103.5,212.695L105,213.354L106.5,214.037L108,214.754L109.5,215.52L111,216.347L112.5,217.253L114,218.252L115.5,219.357L117,220.581L118.5,221.93L120,223.41L121.5,225.021L123,226.759L124.5,228.617L126,230.583L127.5,232.642L129,234.778L130.5,236.973L132,239.207L133.5,241.461L135,243.717L136.5,245.957L138,248.167L139.5,250.332L141,252.442L142.5,254.486L144,256.458L145.5,258.352L147,260.165L148.5,261.894L150,263.538L151.5,265.096L153,266.568L154.5,267.954L156,269.256L157.5,270.474L159,271.611L160.5,272.668L162,273.648L163.5,274.554L165,275.391L166.5,276.164L168,276.878L169.5,277.54L171,278.156L172.5,278.734L174,279.281L175.5,279.805L177,280.313L178.5,280.811L180,281.306L181.5,281.803L183,282.305L184.5,282.814L186,283.333L187.5,283.861L189,284.397L190.5,284.938L192,285.481L193.5,286.021L195,286.555L196.5,287.077L198,287.581L199.5,288.063L201,288.52L202.5,288.946L204,289.34L205.5,289.7L207,290.025L208.5,290.317L210,290.578L211.5,290.809L213,291.016L214.5,291.202L216,291.373L217.5,291.534L219,291.69L220.5,291.846L222,292.007L223.5,292.177L225,292.358L226.5,292.554L228,292.766L229.5,292.993L231,293.237L232.5,293.496L234,293.767L235.5,294.049L237,294.34L238.5,294.634L240,294.93L241.5,295.224L243,295.512L244.5,295.79L246,296.056L247.5,296.306L249,296.537L250.5,296.748L252,296.936L253.5,297.101L255,297.242L256.5,297.359L258,297.454L259.5,297.527L261,297.581L262.5,297.619L264,297.643L265.5,297.658L267,297.667L268.5,297.673L270,297.681L271.5,297.694L273,297.715L274.5,297.745L276,297.787L277.5,297.843L279,297.911L280.5,297.993L282,298.087L283.5,298.193L285,298.307L286.5,298.428L288,298.554L289.5,298.683L291,298.811L292.5,298.937L294,299.059L295.5,299.175L297,299.284L298.5,299.384L300,299.476L300,300L298.5,300L297,300L295.5,300L294,300L292.5,300L291,300L289.5,300L288,300L286.5,300L285,300L283.5,300L282,300L280.5,300L279,300L277.5,300L276,300L274.5,300L273,300L271.5,300L270,300L268.5,300L267,300L265.5,300L264,300L262.5,300L261,300L259.5,300L258,300L256.5,300L255,300L253.5,300L252,300L250.5,300L249,300L247.5,300L246,300L244.5,300L243,300L241.5,300L240,300L238.5,300L237,300L235.5,300L234,300L232.5,300L231,300L229.5,300L228,300L226.5,300L225,300L223.5,300L222,300L220.5,300L219,300L217.5,300L216,300L214.5,300L213,300L211.5,300L210,300L208.5,300L207,300L205.5,300L204,300L202.5,300L201,300L199.5,300L198,300L196.5,300L195,300L193.5,300L192,300L190.5,300L189,300L187.5,300L186,300L184.5,300L183,300L181.5,300L180,300L178.5,300L177,300L175.5,300L174,300L172.5,300L171,300L169.5,300L168,300L166.5,300L165,300L163.5,300L162,300L160.5,300L159,300L157.5,300L156,300L154.5,300L153,300L151.5,300L150,300L148.5,300L147,300L145.5,300L144,300L142.5,300L141,300L139.5,300L138,300L136.5,300L135,300L133.5,300L132,300L130.5,300L129,300L127.5,300L126,300L124.5,300L123,300L121.5,300L120,300L118.5,300L117,300L115.5,300L114,300L112.5,300L111,300L109.5,300L108,300L106.5,300L105,300L103.5,300L102,300L100.5,300L99,300L97.5,300L96,300L94.5,300L93,300L91.5,300L90,300L88.5,300L87,300L85.5,300L84,300L82.5,300L81,300L79.5,300L78,300L76.5,300L75,300L73.5,300L72,300L70.5,300L69,300L67.5,300L66,300L64.5,300L63,300L61.5,300L60,300L58.5,300L57,300L55.5,300L54,300L52.5,300L51,300L49.5,300L48,300L46.5,300L45,300L43.5,300L42,300L40.5,300L39,300L37.5,300L36,300L34.5,300L33,300L31.5,300L30,300L28.5,300L27,300L25.5,300L24,300L22.5,300L21,300L19.5,300L18,300L16.5,300L15,300L13.5,300L12,300L10.5,300L9,300L7.5,300L6,300L4.5,300L3,300L1.5,300L0,300Z" fill="#FFAE42" opacity="0.5"/></g></g><path class="foreground" aria-hidden="true" d="" display="none"/></g><g transform="translate(0,0)"><path class="background" aria-hidden="true" d="M0,0h300v300h-300Z"/><g><g class="mark-area role-mark marks" role="graphics-object" aria-roledescription="area mark container"><path aria-label="AIAN Drug-Related Deaths Per 100K: 0; Density: 0.00685257249182; Jurisdiction: Tribal Authority" role="graphics-symbol" aria-roledescription="area mark" d="M0,113.112L1.5,98.977L3,85.257L4.5,72.156L6,59.87L7.5,48.587L9,38.477L10.5,29.69L12,22.352L13.5,16.558L15,12.372L16.5,9.825L18,8.918L19.5,9.616L21,11.857L22.5,15.551L24,20.583L25.5,26.822L27,34.119L28.5,42.318L30,51.255L31.5,60.767L33,70.692L34.5,80.878L36,91.181L37.5,101.467L39,111.62L40.5,121.535L42,131.127L43.5,140.321L45,149.062L46.5,157.307L48,165.027L49.5,172.203L51,178.83L52.5,184.908L54,190.449L55.5,195.467L57,199.983L58.5,204.024L60,207.616L61.5,210.791L63,213.581L64.5,216.018L66,218.138L67.5,219.975L69,221.564L70.5,222.94L72,224.136L73.5,225.186L75,226.121L76.5,226.973L78,227.769L79.5,228.535L81,229.294L82.5,230.065L84,230.865L85.5,231.707L87,232.6L88.5,233.551L90,234.563L91.5,235.636L93,236.767L94.5,237.952L96,239.184L97.5,240.455L99,241.757L100.5,243.078L102,244.411L103.5,245.744L105,247.069L106.5,248.377L108,249.659L109.5,250.911L111,252.126L112.5,253.302L114,254.436L115.5,255.527L117,256.578L118.5,257.591L120,258.568L121.5,259.517L123,260.441L124.5,261.346L126,262.24L127.5,263.126L129,264.012L130.5,264.9L132,265.795L133.5,266.697L135,267.608L136.5,268.527L138,269.45L139.5,270.375L141,271.298L142.5,272.212L144,273.113L145.5,273.996L147,274.854L148.5,275.684L150,276.483L151.5,277.248L153,277.979L154.5,278.676L156,279.343L157.5,279.982L159,280.599L160.5,281.198L162,281.787L163.5,282.37L165,282.954L166.5,283.545L168,284.146L169.5,284.76L171,285.39L172.5,286.036L174,286.697L175.5,287.37L177,288.052L178.5,288.739L180,289.425L181.5,290.104L183,290.771L184.5,291.419L186,292.044L187.5,292.64L189,293.203L190.5,293.731L192,294.22L193.5,294.67L195,295.081L196.5,295.452L198,295.786L199.5,296.084L201,296.349L202.5,296.583L204,296.791L205.5,296.976L207,297.141L208.5,297.289L210,297.424L211.5,297.548L213,297.665L214.5,297.776L216,297.883L217.5,297.989L219,298.094L220.5,298.199L222,298.305L223.5,298.412L225,298.519L226.5,298.626L228,298.733L229.5,298.839L231,298.944L232.5,299.045L234,299.143L235.5,299.237L237,299.326L238.5,299.409L240,299.487L241.5,299.558L243,299.622L244.5,299.68L246,299.731L247.5,299.776L249,299.815L250.5,299.849L252,299.878L253.5,299.902L255,299.922L256.5,299.939L258,299.952L259.5,299.963L261,299.972L262.5,299.979L264,299.984L265.5,299.988L267,299.991L268.5,299.994L270,299.995L271.5,299.997L273,299.998L274.5,299.998L276,299.999L277.5,299.999L279,299.999L280.5,300L282,300L283.5,300L285,300L286.5,300L288,300L289.5,300L291,300L292.5,300L294,300L295.5,300L297,300L298.5,300L300,300L300,300L298.5,300L297,300L295.5,300L294,300L292.5,300L291,300L289.5,300L288,300L286.5,300L285,300L283.5,300L282,300L280.5,300L279,300L277.5,300L276,300L274.5,300L273,300L271.5,300L270,300L268.5,300L267,300L265.5,300L264,300L262.5,300L261,300L259.5,300L258,300L256.5,300L255,300L253.5,300L252,300L250.5,300L249,300L247.5,300L246,300L244.5,300L243,300L241.5,300L240,300L238.5,300L237,300L235.5,300L234,300L232.5,300L231,300L229.5,300L228,300L226.5,300L225,300L223.5,300L222,300L220.5,300L219,300L217.5,300L216,300L214.5,300L213,300L211.5,300L210,300L208.5,300L207,300L205.5,300L204,300L202.5,300L201,300L199.5,300L198,300L196.5,300L195,300L193.5,300L192,300L190.5,300L189,300L187.5,300L186,300L184.5,300L183,300L181.5,300L180,300L178.5,300L177,300L175.5,300L174,300L172.5,300L171,300L169.5,300L168,300L166.5,300L165,300L163.5,300L162,300L160.5,300L159,300L157.5,300L156,300L154.5,300L153,300L151.5,300L150,300L148.5,300L147,300L145.5,300L144,300L142.5,300L141,300L139.5,300L138,300L136.5,300L135,300L133.5,300L132,300L130.5,300L129,300L127.5,300L126,300L124.5,300L123,300L121.5,300L120,300L118.5,300L117,300L115.5,300L114,300L112.5,300L111,300L109.5,300L108,300L106.5,300L105,300L103.5,300L102,300L100.5,300L99,300L97.5,300L96,300L94.5,300L93,300L91.5,300L90,300L88.5,300L87,300L85.5,300L84,300L82.5,300L81,300L79.5,300L78,300L76.5,300L75,300L73.5,300L72,300L70.5,300L69,300L67.5,300L66,300L64.5,300L63,300L61.5,300L60,300L58.5,300L57,300L55.5,300L54,300L52.5,300L51,300L49.5,300L48,300L46.5,300L45,300L43.5,300L42,300L40.5,300L39,300L37.5,300L36,300L34.5,300L33,300L31.5,300L30,300L28.5,300L27,300L25.5,300L24,300L22.5,300L21,300L19.5,300L18,300L16.5,300L15,300L13.5,300L12,300L10.5,300L9,300L7.5,300L6,300L4.5,300L3,300L1.5,300L0,300Z" fill="#a478d1" opacity="0.5"/></g></g><path class="foreground" aria-hidden="true" d="" display="none"/></g></g><g class="mark-group role-legend" role="graphics-symbol" aria-roledescription="legend" aria-label="Symbol legend titled 'Jurisdiction' for fill color with 2 values: State, Tribal Authority"><g transform="translate(318,0)"><path class="background" aria-hidden="true" d="M0,0h83v40h-83Z" pointer-events="none"/><g><g class="mark-group role-legend-entry"><g transform="translate(0,16)"><path class="background" aria-hidden="true" d="M0,0h0v0h0Z" pointer-events="none"/><g><g class="mark-group role-scope" role="graphics-object" aria-roledescription="group mark container"><g transform="translate(0,0)"><path class="background" aria-hidden="true" d="M0,0h82.3232421875v11h-82.3232421875Z" pointer-events="none" opacity="1"/><g><g class="mark-symbol role-legend-symbol" pointer-events="none"><path transform="translate(6,6)" d="M5,0A5,5,0,1,1,-5,0A5,5,0,1,1,5,0" fill="#FFAE42" stroke-width="1.5" opacity="0.5"/></g><g class="mark-text role-legend-label" pointer-events="none"><text text-anchor="start" transform="translate(16,9)" font-family="sans-serif" font-size="10px" fill="#000" opacity="1">State</text></g></g><path class="foreground" aria-hidden="true" d="" pointer-events="none" display="none"/></g><g transform="translate(0,13)"><path class="background" aria-hidden="true" d="M0,0h82.3232421875v11h-82.3232421875Z" pointer-events="none" opacity="1"/><g><g class="mark-symbol role-legend-symbol" pointer-events="none"><path transform="translate(6,6)" d="M5,0A5,5,0,1,1,-5,0A5,5,0,1,1,5,0" fill="#a478d1" stroke-width="1.5" opacity="0.5"/></g><g class="mark-text role-legend-label" pointer-events="none"><text text-anchor="start" transform="translate(16,9)" font-family="sans-serif" font-size="10px" fill="#000" opacity="1">Tribal Authority</text></g></g><path class="foreground" aria-hidden="true" d="" pointer-events="none" display="none"/></g></g></g><path class="foreground" aria-hidden="true" d="" pointer-events="none" display="none"/></g></g><g class="mark-text role-legend-title" pointer-events="none"><text text-anchor="start" transform="translate(0,9)" font-family="sans-serif" font-size="11px" font-weight="bold" fill="#000" opacity="1">Jurisdiction</text></g></g><path class="foreground" aria-hidden="true" d="" pointer-events="none" display="none"/></g></g><g class="mark-group role-title"><g transform="translate(150,-22)"><path class="background" aria-hidden="true" d="M0,0h0v0h0Z" pointer-events="none"/><g><g class="mark-text role-title-text" role="graphics-symbol" aria-roledescription="title" aria-label="Title text 'More States where Tribes Lack Criminal Jurisdiction Have Drug-Related Death Rates Above 100/100,000'" pointer-events="none"><text text-anchor="middle" transform="translate(0,10)" font-family="sans-serif" font-size="13px" font-weight="bold" fill="#000" opacity="1">More States where Tribes Lack Criminal Jurisdiction Have Drug-Related Death Rates Above 100/100,000</text></g></g><path class="foreground" aria-hidden="true" d="" pointer-events="none" display="none"/></g></g></g><path class="foreground" aria-hidden="true" d="" display="none"/></g></g></g></svg>